<?xml version="1.0" encoding="utf-8"?>
<!-- Generator: Adobe Illustrator 25.0.1, SVG Export Plug-In . SVG Version: 6.00 Build 0)  -->
<svg version="1.1" id="Layer_1" xmlns="http://www.w3.org/2000/svg" xmlns:xlink="http://www.w3.org/1999/xlink" x="0px" y="0px"
	 viewBox="0 0 360 360" style="enable-background:new 0 0 360 360;" xml:space="preserve">
<style type="text/css">
	.st0{fill:#EC272D;}
	.st1{fill:#203C73;}
</style>
<g>
	<g>
		<path class="st0" d="M34.95,255.41c1.04-0.27,1.83-0.43,1.83-1.76v-7.88c0-1.11-0.72-1.4-1.49-1.61
			c-0.14-0.04-0.05-0.66,0.09-0.64c1.29,0.16,3.81,0.11,4.73,0.11c1.63,0,2.78-0.07,4.3-0.11c0.43,0,0.45,0.29,0.36,0.7l-0.43,1.72
			c-0.05,0.25-0.5,0.25-0.57,0c-0.29-0.9-0.81-1.34-3.01-1.34c-1.18,0-1.58,0.32-1.58,1.2v2.88c0,0.47,0.23,0.56,0.59,0.56h0.41
			c1.36,0,2.65-0.18,3.35-0.77c0.18-0.16,0.57-0.13,0.41,0.25l-1,2.26c-0.14,0.36-0.43,0.32-0.63,0.04
			c-0.41-0.59-1.31-0.82-2.26-0.82h-0.29c-0.36,0-0.59,0.09-0.59,0.56v2.92c0,1.02,0.38,1.43,1.83,1.43c2.54,0,3.74-1.29,4.15-1.92
			c0.13-0.18,0.65-0.07,0.65,0.23c0,0.84-0.81,2.74-1.95,2.72c-1.11-0.05-1.97-0.11-3.46-0.11c-1.63,0-3.72-0.05-5.34,0.11
			C34.88,256.14,34.81,255.44,34.95,255.41z"/>
		<path class="st0" d="M48.12,250.07c0-3.08,1.86-6.81,6.95-6.81c2.1,0,3.89,0.64,3.65,1.27l-0.25,0.75c-0.72,2.1-1.29-0.5-4.59-0.5
			c-2.53,0-3.64,1.67-3.64,4.12c0,4.05,3.08,5.62,5.39,5.62c0.34,0,2.1-0.25,2.87-0.75c0.14-0.09,0.56,0.36,0.45,0.52
			c-0.77,1.13-3.21,2.08-3.8,2.08C52.15,256.37,48.12,254.62,48.12,250.07z"/>
		<path class="st0" d="M61.21,249.89c0-3.62,2.6-6.63,6.52-6.63c3.74,0,6.5,2.72,6.5,6.47c0,3.64-2.58,6.64-6.54,6.64
			C63.99,256.37,61.21,253.63,61.21,249.89z M71.87,250.79c0-3.55-2.38-6.21-4.85-6.21c-1.52,0-3.42,1.04-3.42,4.26
			c0,3.6,2.38,6.23,4.85,6.23C69.95,255.07,71.87,254.03,71.87,250.79z"/>
		<path class="st0" d="M87.81,255.93l-8.45-8.61v6.43c0,1.24,0.72,1.42,1.83,1.68c0.14,0.04,0.07,0.66-0.11,0.66h-4.42
			c-0.14,0-0.25-0.59-0.09-0.66c0.68-0.27,1.45-0.34,1.45-1.68v-6.81c0-1.38-0.25-1.88-0.63-2.49c-0.18-0.27-0.36-0.43-0.36-0.48
			c0-0.16,0.11-0.41,0.39-0.41h1.38c0.18,0,0.3,0.02,0.43,0.16l8.27,8.53v-6.38c0-1.27-0.82-1.4-1.83-1.65
			c-0.14-0.04-0.07-0.66,0.11-0.66h4.42c0.14,0,0.22,0.63,0.09,0.66c-0.79,0.25-1.47,0.38-1.47,1.65v6.84
			c0,1.25,0.05,2.56,0.22,3.22c0.07,0.27-0.2,0.34-0.52,0.34C88.2,256.27,88.02,256.14,87.81,255.93z"/>
		<path class="st0" d="M92.65,249.89c0-3.62,2.6-6.63,6.52-6.63c3.74,0,6.5,2.72,6.5,6.47c0,3.64-2.58,6.64-6.54,6.64
			C95.43,256.37,92.65,253.63,92.65,249.89z M103.31,250.79c0-3.55-2.38-6.21-4.85-6.21c-1.52,0-3.42,1.04-3.42,4.26
			c0,3.6,2.38,6.23,4.85,6.23C101.39,255.07,103.31,254.03,103.31,250.79z"/>
		<path class="st0" d="M123.85,256.09h-4.93c-0.13,0-0.22-0.64-0.11-0.66c0.81-0.14,1.33-0.54,1.27-1.61l-0.34-5.64l-2.7,5.55
			c-0.41,0.86-0.7,1.61-0.75,1.88c-0.04,0.21-0.47,0.32-0.77,0.32c-0.29,0-0.48-0.11-0.59-0.32l-4.05-7.63l-0.25,5.84
			c-0.05,1.31,0.75,1.56,1.27,1.61c0.14,0.02,0.04,0.66-0.07,0.66H108c-0.14,0-0.25-0.64-0.11-0.66c0.77-0.09,1.4-0.36,1.47-1.61
			l0.59-10.21c0.02-0.32,0.77-0.36,0.99,0l5.18,9.58l4.78-9.58c0.18-0.36,0.99-0.32,1-0.02l0.59,10.23
			c0.07,1.25,0.72,1.54,1.45,1.61C124.08,255.44,123.98,256.09,123.85,256.09z"/>
		<path class="st0" d="M126.64,255.42c0.93-0.13,1.47-0.5,1.47-1.61v-7.99c0-1.11-0.54-1.49-1.47-1.61
			c-0.14-0.02-0.04-0.66,0.11-0.66h5.12c0.14,0,0.25,0.64,0.11,0.66c-0.75,0.11-1.47,0.36-1.47,1.61v7.99c0,1.25,0.72,1.5,1.47,1.61
			c0.14,0.02,0.04,0.66-0.11,0.66h-5.12C126.6,256.09,126.49,255.44,126.64,255.42z M129.38,239.05c0.32-0.47,1.88,0.98,1.45,1.29
			l-2.33,1.76c-0.23,0.18-0.9-0.45-0.72-0.7L129.38,239.05z"/>
		<path class="st0" d="M147.73,256.09h-4.94c-0.25,0-0.25-0.61-0.05-0.64c0.64-0.13,1.38-0.34,0.72-1.86l-0.14-0.3
			c-0.18-0.45-0.43-0.5-0.93-0.5h-3.58c-0.54,0-0.79,0.05-0.97,0.5l-0.11,0.3c-0.63,1.5,0.05,1.76,0.91,1.86
			c0.23,0.04,0.18,0.64-0.05,0.64h-3.96c-0.21,0-0.27-0.61-0.05-0.64c0.73-0.13,1.16-0.36,1.81-1.86l3.03-6.98
			c0.7-1.58,0.91-2.27,0.91-2.96c0-0.11,1.25-0.39,1.31-0.27l4.37,10.19c0.63,1.49,1.06,1.77,1.77,1.88
			C148.02,255.48,147.95,256.09,147.73,256.09z M142.52,251.41l-1.93-4.67l-1.95,4.67c-0.11,0.25,0.14,0.29,0.38,0.29h3.13
			C142.38,251.7,142.65,251.66,142.52,251.41z"/>
		<path class="st0" d="M150.04,258.67c0.73-0.63,1.65-1.75,1.65-2.58c0-0.47-1.15-0.75-1.15-1.25c0-0.52,1.02-1.45,1.47-1.45
			c0.47,0,1.43,0.95,1.43,1.47c0,1.36-1.29,3.19-2.88,4.23C150.38,259.19,149.85,258.83,150.04,258.67z"/>
		<path class="st0" d="M164.44,251.3v2.51c0,1.27,0.88,1.49,1.99,1.61c0.13,0.02,0.04,0.66-0.11,0.66h-5.64
			c-0.14,0-0.25-0.64-0.11-0.66c0.93-0.13,1.47-0.5,1.47-1.61v-7.88c0-1.18-0.61-1.52-1.47-1.76c-0.14-0.04-0.05-0.68,0.11-0.66
			c0.7,0.09,1.47,0.11,2.08,0.11c1.42,0,2.56-0.11,3.47-0.11c2.87,0,5.18,1.02,5.18,3.83C171.41,250.52,168.42,251.91,164.44,251.3z
			 M164.44,245.93v4.46c2.92,0.39,4.39-0.39,4.39-2.63c0-1.95-1.22-3.24-3.1-3.24C164.69,244.52,164.44,244.88,164.44,245.93z"/>
		<path class="st0" d="M173.16,255.41c1.04-0.27,1.83-0.43,1.83-1.76v-7.83c0-1.25-0.72-1.5-1.49-1.61
			c-0.14-0.02-0.04-0.66,0.09-0.66h5.16c0.13,0,0.22,0.64,0.09,0.66c-0.73,0.07-1.45,0.36-1.45,1.61v7.83
			c0,1.02,0.38,1.43,1.83,1.43c2.54,0,3.74-1.29,4.15-1.92c0.13-0.18,0.65-0.07,0.65,0.23c0,0.84-0.81,2.74-1.95,2.72
			c-1.11-0.05-1.97-0.11-3.46-0.11c-1.63,0-3.72-0.05-5.34,0.11C173.09,256.14,173.02,255.44,173.16,255.41z"/>
		<path class="st0" d="M199.3,256.09h-4.94c-0.25,0-0.25-0.61-0.05-0.64c0.64-0.13,1.38-0.34,0.72-1.86l-0.14-0.3
			c-0.18-0.45-0.43-0.5-0.93-0.5h-3.58c-0.54,0-0.79,0.05-0.97,0.5l-0.11,0.3c-0.63,1.5,0.05,1.76,0.91,1.86
			c0.23,0.04,0.18,0.64-0.05,0.64h-3.96c-0.21,0-0.27-0.61-0.05-0.64c0.73-0.13,1.16-0.36,1.81-1.86l3.03-6.98
			c0.7-1.58,0.91-2.27,0.91-2.96c0-0.11,1.25-0.39,1.31-0.27l4.37,10.19c0.63,1.49,1.06,1.77,1.77,1.88
			C199.58,255.48,199.51,256.09,199.3,256.09z M194.08,251.41l-1.93-4.67l-1.95,4.67c-0.11,0.25,0.14,0.29,0.38,0.29h3.13
			C193.94,251.7,194.21,251.66,194.08,251.41z"/>
		<path class="st0" d="M213.19,255.93l-8.45-8.61v6.43c0,1.24,0.72,1.42,1.83,1.68c0.14,0.04,0.07,0.66-0.11,0.66h-4.42
			c-0.14,0-0.25-0.59-0.09-0.66c0.68-0.27,1.45-0.34,1.45-1.68v-6.81c0-1.38-0.25-1.88-0.63-2.49c-0.18-0.27-0.36-0.43-0.36-0.48
			c0-0.16,0.11-0.41,0.39-0.41h1.38c0.18,0,0.3,0.02,0.43,0.16l8.27,8.53v-6.38c0-1.27-0.82-1.4-1.83-1.65
			c-0.14-0.04-0.07-0.66,0.11-0.66h4.42c0.14,0,0.22,0.63,0.09,0.66c-0.79,0.25-1.47,0.38-1.47,1.65v6.84
			c0,1.25,0.05,2.56,0.22,3.22c0.07,0.27-0.2,0.34-0.52,0.34C213.58,256.27,213.4,256.14,213.19,255.93z"/>
		<path class="st0" d="M218.36,255.42c0.93-0.13,1.47-0.5,1.47-1.61v-7.99c0-1.11-0.54-1.49-1.47-1.61
			c-0.14-0.02-0.04-0.66,0.11-0.66h5.12c0.14,0,0.25,0.64,0.11,0.66c-0.75,0.11-1.47,0.36-1.47,1.61v7.99c0,1.25,0.72,1.5,1.47,1.61
			c0.14,0.02,0.04,0.66-0.11,0.66h-5.12C218.33,256.09,218.22,255.44,218.36,255.42z"/>
		<path class="st0" d="M226.24,255.41c1.04-0.27,1.83-0.43,1.83-1.76v-7.88c0-1.11-0.72-1.4-1.49-1.61
			c-0.14-0.04-0.05-0.66,0.09-0.64c1.29,0.16,3.81,0.11,4.73,0.11c1.63,0,2.78-0.07,4.3-0.11c0.43,0,0.45,0.29,0.36,0.7l-0.43,1.72
			c-0.05,0.25-0.5,0.25-0.57,0c-0.29-0.9-0.81-1.34-3.01-1.34c-1.18,0-1.58,0.32-1.58,1.2v3.06c0,0.47,0.23,0.56,0.59,0.56h0.41
			c1.36,0,2.65-0.18,3.35-0.77c0.18-0.16,0.57-0.13,0.41,0.25l-1,2.26c-0.14,0.36-0.43,0.32-0.63,0.04
			c-0.41-0.59-1.31-0.82-2.26-0.82h-0.29c-0.36,0-0.59,0.09-0.59,0.56v2.74c0,1.33,0.77,1.42,2.29,1.76
			c0.14,0.04,0.07,0.73-0.11,0.72c-1.38-0.09-2.26-0.11-3.38-0.11c-1.13,0-2.08,0.02-2.92,0.11
			C226.16,256.14,226.09,255.44,226.24,255.41z"/>
		<path class="st0" d="M238.74,255.42c0.93-0.13,1.47-0.5,1.47-1.61v-7.99c0-1.11-0.54-1.49-1.47-1.61
			c-0.14-0.02-0.04-0.66,0.11-0.66h5.12c0.14,0,0.25,0.64,0.11,0.66c-0.75,0.11-1.47,0.36-1.47,1.61v7.99c0,1.25,0.72,1.5,1.47,1.61
			c0.14,0.02,0.04,0.66-0.11,0.66h-5.12C238.7,256.09,238.6,255.44,238.74,255.42z"/>
		<path class="st0" d="M246.41,250.07c0-3.08,1.86-6.81,6.95-6.81c2.1,0,3.89,0.64,3.65,1.27l-0.25,0.75
			c-0.72,2.1-1.29-0.5-4.59-0.5c-2.53,0-3.64,1.67-3.64,4.12c0,4.05,3.08,5.62,5.39,5.62c0.34,0,2.1-0.25,2.87-0.75
			c0.14-0.09,0.56,0.36,0.45,0.52c-0.77,1.13-3.21,2.08-3.8,2.08C250.44,256.37,246.41,254.62,246.41,250.07z"/>
		<path class="st0" d="M272.63,256.09h-4.94c-0.25,0-0.25-0.61-0.05-0.64c0.64-0.13,1.38-0.34,0.72-1.86l-0.14-0.3
			c-0.18-0.45-0.43-0.5-0.93-0.5h-3.58c-0.54,0-0.79,0.05-0.97,0.5l-0.11,0.3c-0.63,1.5,0.05,1.76,0.91,1.86
			c0.23,0.04,0.18,0.64-0.05,0.64h-3.96c-0.21,0-0.27-0.61-0.05-0.64c0.73-0.13,1.16-0.36,1.81-1.86l3.03-6.98
			c0.7-1.58,0.91-2.27,0.91-2.96c0-0.11,1.25-0.39,1.31-0.27l4.37,10.19c0.63,1.49,1.06,1.77,1.77,1.88
			C272.91,255.48,272.84,256.09,272.63,256.09z M267.42,251.41l-1.93-4.67l-1.95,4.67c-0.11,0.25,0.14,0.29,0.38,0.29h3.13
			C267.27,251.7,267.54,251.66,267.42,251.41z"/>
		<path class="st0" d="M274.08,250.07c0-3.08,1.86-6.81,6.95-6.81c2.1,0,3.89,0.64,3.65,1.27l-0.25,0.75
			c-0.72,2.1-1.29-0.5-4.59-0.5c-2.53,0-3.64,1.67-3.64,4.12c0,4.05,3.08,5.62,5.39,5.62c0.34,0,2.1-0.25,2.87-0.75
			c0.14-0.09,0.56,0.36,0.45,0.52c-0.77,1.13-3.21,2.08-3.8,2.08C278.11,256.37,274.08,254.62,274.08,250.07z"/>
		<path class="st0" d="M287.5,255.42c0.93-0.13,1.47-0.5,1.47-1.61v-7.99c0-1.11-0.54-1.49-1.47-1.61
			c-0.14-0.02-0.04-0.66,0.11-0.66h5.12c0.14,0,0.25,0.64,0.11,0.66c-0.75,0.11-1.47,0.36-1.47,1.61v7.99c0,1.25,0.72,1.5,1.47,1.61
			c0.14,0.02,0.04,0.66-0.11,0.66h-5.12C287.47,256.09,287.36,255.44,287.5,255.42z"/>
		<path class="st0" d="M295.17,249.89c0-3.62,2.6-6.63,6.52-6.63c3.74,0,6.5,2.72,6.5,6.47c0,3.64-2.58,6.64-6.54,6.64
			C297.95,256.37,295.17,253.63,295.17,249.89z M305.83,250.79c0-3.55-2.38-6.21-4.85-6.21c-1.52,0-3.42,1.04-3.42,4.26
			c0,3.6,2.38,6.23,4.85,6.23C303.91,255.07,305.83,254.03,305.83,250.79z M301.75,239.05c0.32-0.47,1.88,0.98,1.45,1.29l-2.33,1.76
			c-0.23,0.18-0.9-0.45-0.72-0.7L301.75,239.05z"/>
		<path class="st0" d="M321.77,255.93l-8.45-8.61v6.43c0,1.24,0.72,1.42,1.83,1.68c0.14,0.04,0.07,0.66-0.11,0.66h-4.42
			c-0.14,0-0.25-0.59-0.09-0.66c0.68-0.27,1.45-0.34,1.45-1.68v-6.81c0-1.38-0.25-1.88-0.63-2.49c-0.18-0.27-0.36-0.43-0.36-0.48
			c0-0.16,0.11-0.41,0.39-0.41h1.38c0.18,0,0.3,0.02,0.43,0.16l8.27,8.53v-6.38c0-1.27-0.82-1.4-1.83-1.65
			c-0.14-0.04-0.07-0.66,0.11-0.66h4.42c0.14,0,0.22,0.63,0.09,0.66c-0.79,0.25-1.47,0.38-1.47,1.65v6.84
			c0,1.25,0.05,2.56,0.21,3.22c0.07,0.27-0.2,0.34-0.52,0.34C322.16,256.27,321.98,256.14,321.77,255.93z"/>
		<path class="st0" d="M115.14,264.28c-0.68,0.11-1.31,0.59-2.11,1.86l-2.83,4.42v3.33c0,1.25,0.72,1.47,1.81,1.61
			c0.13,0.02,0.04,0.66-0.11,0.66h-5.8c-0.14,0-0.23-0.64-0.11-0.66c1.2-0.16,1.83-0.41,1.83-1.61v-3.28l-2.97-4.46
			c-0.81-1.2-1.31-1.75-2.08-1.88c-0.23-0.04-0.18-0.64,0.05-0.64h4.96c0.23,0,0.25,0.61,0.05,0.64c-0.79,0.13-1.07,0.72-0.32,1.86
			l2.19,3.24l2.1-3.24c0.73-1.13,0.27-1.72-0.65-1.86c-0.27-0.04-0.18-0.64,0.04-0.64h3.9
			C115.28,263.64,115.34,264.24,115.14,264.28z"/>
		<path class="st0" d="M121.7,275.49c1.04-0.27,1.83-0.43,1.83-1.76v-7.88c0-1.11-0.72-1.42-1.49-1.61
			c-0.14-0.04-0.05-0.66,0.09-0.64c0.73,0.09,1.49,0.11,2.35,0.11c1.5,0,2.76-0.11,3.65-0.11c4.26,0,6.68,2.58,6.68,6.04
			c0,3.37-2.36,6.57-6.7,6.57c-0.84,0-1.95-0.11-3.38-0.11c-1.22,0-2.1,0.02-2.92,0.11C121.63,276.23,121.55,275.53,121.7,275.49z
			 M132.43,270.76c0-3.51-1.83-6.16-4.89-6.16c-1.18,0-1.61,0.38-1.61,1.25v7.88c0,0.95,0.75,1.47,2.49,1.47
			C131.17,275.21,132.43,273.7,132.43,270.76z"/>
		<path class="st0" d="M136.79,275.49c1.04-0.27,1.83-0.43,1.83-1.76v-7.88c0-1.11-0.72-1.4-1.49-1.61
			c-0.14-0.04-0.05-0.66,0.09-0.64c1.29,0.16,3.81,0.11,4.73,0.11c1.63,0,2.78-0.07,4.3-0.11c0.43,0,0.45,0.29,0.36,0.7l-0.43,1.72
			c-0.05,0.25-0.5,0.25-0.57,0c-0.29-0.9-0.81-1.34-3.01-1.34c-1.18,0-1.58,0.32-1.58,1.2v2.88c0,0.47,0.23,0.56,0.59,0.56h0.41
			c1.36,0,2.65-0.18,3.35-0.77c0.18-0.16,0.57-0.13,0.41,0.25l-1,2.26c-0.14,0.36-0.43,0.32-0.63,0.04
			c-0.41-0.59-1.31-0.82-2.26-0.82h-0.29c-0.36,0-0.59,0.09-0.59,0.56v2.92c0,1.02,0.38,1.43,1.83,1.43c2.54,0,3.74-1.29,4.15-1.92
			c0.13-0.18,0.65-0.07,0.65,0.23c0,0.84-0.81,2.74-1.95,2.72c-1.11-0.05-1.97-0.11-3.46-0.11c-1.63,0-3.72-0.05-5.34,0.11
			C136.72,276.23,136.65,275.53,136.79,275.49z"/>
		<path class="st0" d="M150.24,275.03l0.18-0.7c0.54-1.99,1.18,0.88,4.14,0.88c1.45,0,2.08-0.7,2.08-1.68
			c0-0.75-0.45-1.09-1.81-1.95l-1.5-1c-2.02-1.31-2.88-2.02-2.88-3.44c0-2.27,2.24-3.78,4.42-3.78c1.34,0,3.12,0.59,2.92,1.2
			l-0.23,0.7c-0.61,1.86-1.02-0.63-3.47-0.63c-1.2,0-1.83,0.59-1.83,1.5c0,0.82,0.5,1.25,1.68,2.01l1.7,1.09
			c1.95,1.24,2.76,2.04,2.76,3.37c0,2.27-2.2,3.87-4.6,3.87C152.32,276.46,150.02,275.83,150.24,275.03z"/>
		<path class="st0" d="M173.51,276.17h-4.94c-0.25,0-0.25-0.61-0.05-0.64c0.64-0.13,1.38-0.34,0.72-1.86l-0.14-0.3
			c-0.18-0.45-0.43-0.5-0.93-0.5h-3.58c-0.54,0-0.79,0.05-0.97,0.5l-0.11,0.3c-0.63,1.5,0.05,1.76,0.91,1.86
			c0.23,0.04,0.18,0.64-0.05,0.64h-3.96c-0.21,0-0.27-0.61-0.05-0.64c0.73-0.13,1.16-0.36,1.81-1.86l3.03-6.98
			c0.7-1.58,0.91-2.27,0.91-2.96c0-0.11,1.25-0.39,1.31-0.27l4.37,10.19c0.63,1.49,1.06,1.77,1.77,1.88
			C173.8,275.56,173.73,276.17,173.51,276.17z M168.3,271.5l-1.93-4.67l-1.95,4.67c-0.11,0.25,0.14,0.29,0.38,0.29h3.13
			C168.16,271.79,168.42,271.75,168.3,271.5z"/>
		<path class="st0" d="M189.61,276.24c-1.22,0.36-2.83,0.38-3.98-1.09l-2.72-3.51c-0.81-1.04-1.63-1.16-2.85-1.18v3.44
			c0,1.27,0.88,1.49,1.99,1.61c0.13,0.02,0.04,0.66-0.11,0.66h-5.64c-0.14,0-0.25-0.64-0.11-0.66c0.93-0.13,1.47-0.5,1.47-1.61
			v-7.88c0-1.18-0.61-1.52-1.47-1.76c-0.14-0.04-0.05-0.68,0.11-0.66c0.7,0.09,1.47,0.11,2.08,0.11c1.42,0,2.74-0.11,3.62-0.11
			c2.83,0,4.59,1.15,4.59,3.31c0,2.02-1.63,3.06-3.24,3.15v0.07c0.77,0,1.34,0.34,2.15,1.34l2.6,3.26c0.59,0.75,1.18,0.97,1.52,0.97
			C189.75,275.71,189.71,276.21,189.61,276.24z M184.07,267.41c0-1.9-1.15-2.81-2.69-2.81c-1.04,0-1.33,0.41-1.33,1.42v3.56h0.47
			C183.18,269.58,184.07,269.13,184.07,267.41z"/>
		<path class="st0" d="M205.5,276.24c-1.22,0.36-2.83,0.38-3.98-1.09l-2.72-3.51c-0.81-1.04-1.63-1.16-2.85-1.18v3.44
			c0,1.27,0.88,1.49,1.99,1.61c0.13,0.02,0.04,0.66-0.11,0.66h-5.64c-0.14,0-0.25-0.64-0.11-0.66c0.93-0.13,1.47-0.5,1.47-1.61
			v-7.88c0-1.18-0.61-1.52-1.47-1.76c-0.14-0.04-0.05-0.68,0.11-0.66c0.7,0.09,1.47,0.11,2.08,0.11c1.42,0,2.74-0.11,3.62-0.11
			c2.83,0,4.59,1.15,4.59,3.31c0,2.02-1.63,3.06-3.24,3.15v0.07c0.77,0,1.34,0.34,2.15,1.34l2.6,3.26c0.59,0.75,1.18,0.97,1.52,0.97
			C205.65,275.71,205.61,276.21,205.5,276.24z M199.97,267.41c0-1.9-1.15-2.81-2.69-2.81c-1.04,0-1.33,0.41-1.33,1.42v3.56h0.47
			C199.07,269.58,199.97,269.13,199.97,267.41z"/>
		<path class="st0" d="M206.73,269.98c0-3.62,2.6-6.63,6.52-6.63c3.74,0,6.5,2.72,6.5,6.47c0,3.64-2.58,6.64-6.54,6.64
			C209.51,276.46,206.73,273.72,206.73,269.98z M217.39,270.87c0-3.55-2.38-6.21-4.85-6.21c-1.52,0-3.42,1.04-3.42,4.26
			c0,3.6,2.38,6.23,4.85,6.23C215.47,275.15,217.39,274.11,217.39,270.87z"/>
		<path class="st0" d="M221.84,275.49c1.04-0.27,1.83-0.43,1.83-1.76v-7.83c0-1.25-0.72-1.5-1.49-1.61
			c-0.14-0.02-0.04-0.66,0.09-0.66h5.16c0.13,0,0.22,0.64,0.09,0.66c-0.73,0.07-1.45,0.36-1.45,1.61v7.83
			c0,1.02,0.38,1.43,1.83,1.43c2.54,0,3.74-1.29,4.15-1.92c0.13-0.18,0.65-0.07,0.65,0.23c0,0.84-0.81,2.74-1.95,2.72
			c-1.11-0.05-1.97-0.11-3.46-0.11c-1.63,0-3.72-0.05-5.34,0.11C221.77,276.23,221.7,275.53,221.84,275.49z"/>
		<path class="st0" d="M234.76,275.49c1.04-0.27,1.83-0.43,1.83-1.76v-7.83c0-1.25-0.72-1.5-1.49-1.61
			c-0.14-0.02-0.04-0.66,0.09-0.66h5.16c0.13,0,0.22,0.64,0.09,0.66c-0.73,0.07-1.45,0.36-1.45,1.61v7.83
			c0,1.02,0.38,1.43,1.83,1.43c2.54,0,3.74-1.29,4.15-1.92c0.13-0.18,0.65-0.07,0.65,0.23c0,0.84-0.81,2.74-1.95,2.72
			c-1.11-0.05-1.97-0.11-3.46-0.11c-1.63,0-3.72-0.05-5.34,0.11C234.69,276.23,234.62,275.53,234.76,275.49z"/>
		<path class="st0" d="M247.82,269.98c0-3.62,2.6-6.63,6.52-6.63c3.74,0,6.5,2.72,6.5,6.47c0,3.64-2.58,6.64-6.54,6.64
			C250.59,276.46,247.82,273.72,247.82,269.98z M258.47,270.87c0-3.55-2.38-6.21-4.85-6.21c-1.52,0-3.42,1.04-3.42,4.26
			c0,3.6,2.38,6.23,4.85,6.23C256.56,275.15,258.47,274.11,258.47,270.87z"/>
	</g>
	<g>
		<path class="st1" d="M205.85,161.41l3.04-15.72l-8.26-19.42l-9.24-9.65c0,0-0.6-0.47-0.54-0.44c14.81,6.43,25.89,23.9,27.74,45.06
			c0,0.04,0.01,0.12,0.01,0.12L205.85,161.41z M201.13,161.44l-16.26-0.06l0-44.33c0,0,0.14,0.11,0.2,0.17
			c9.55,8.21,16.06,24.62,16.06,43.52C201.13,160.98,201.13,161.44,201.13,161.44 M218.54,161.37l-12.66,0.04
			c0,0-0.03-1.5-0.06-2.34c0.03,0.97,0.06-2.89-0.44-7.78c-1.22-11.77-4.79-21.3-10-29.45c-2.11-3.3-4.49-5.6-4.49-5.6l-0.06-0.08
			c0,0,1.24,0.74,1.93,1.19c1.01,0.65,2.02,1.31,2.97,1.98c3.4,2.42,6.29,5.17,7.83,6.75c0.15,0.16,0.69,0.71,1.28,1.36
			c0.59,0.65,1.23,1.41,1.7,1.97c1.93,2.32,3.81,4.94,5.48,7.94c0.92,1.66,1.69,3.35,2.38,5.04c2.81,6.92,3.8,13.83,4.12,18.4
			C218.5,160.78,218.54,161.37,218.54,161.37 M218.5,160.79C218.5,160.79,218.5,160.79,218.5,160.79
			C218.5,160.79,218.5,160.79,218.5,160.79 M224.83,159.17l-6.26-25.34l-13.13-14.04c0,0-3.89-2.76-6.11-4.27
			c-0.85-0.58-1.55-0.95-1.55-0.95s0.05,0.02,0.07,0.03c18.66,7.54,32,25.53,32.77,46.72c0,0.02,0,0.05,0,0.05L224.83,159.17z
			 M223.33,161.38c0,0-0.46-5.13-1.38-9.71c-0.78-3.91-2.02-7.33-2.17-7.75c-0.78-2.22-1.66-4.7-3.02-7.38
			c-2.45-4.82-4.95-9.34-9.46-14.1c-1.37-1.45-2.9-3-4.71-4.49c-1.21-0.99-2.26-1.77-3.03-2.31c0.45,0.27,1.03,0.61,1.75,1.03
			c1.34,0.77,2.93,1.71,4.63,2.85c0.76,0.51,1.47,1.06,2.26,1.66c0.17,0.13,2.58,1.98,4.94,4.22c1.97,1.87,3.84,4.01,5.1,5.59
			c2.3,2.87,4.5,6.21,6.4,9.97c2.22,4.38,3.68,8.83,4.56,12.74c0.67,2.95,1.17,7.68,1.17,7.68L223.33,161.38z M218.54,161.37
			l-12.66,0.04c0,0-0.03-1.5-0.06-2.34c0.03,0.97,0.06-2.89-0.44-7.78c-1.22-11.77-4.79-21.3-10-29.45c-2.11-3.3-4.49-5.6-4.49-5.6
			l-0.06-0.08c0,0,1.24,0.74,1.93,1.19c1.01,0.65,2.02,1.31,2.97,1.98c3.4,2.42,6.29,5.17,7.83,6.75c0.15,0.16,0.69,0.71,1.28,1.36
			c0.59,0.65,1.23,1.41,1.7,1.97c1.93,2.32,3.81,4.94,5.48,7.94c0.92,1.66,1.69,3.35,2.38,5.04c2.81,6.92,3.8,13.83,4.12,18.4
			C218.5,160.78,218.54,161.37,218.54,161.37 M218.5,160.79C218.5,160.79,218.5,160.79,218.5,160.79
			C218.5,160.79,218.5,160.79,218.5,160.79 M173.45,116.63l-9.24,9.65l-8.26,19.43l3.04,15.72l-12.75-0.05c0,0,0.01-0.08,0.01-0.12
			c1.85-21.16,12.93-38.64,27.74-45.08C174.05,116.17,173.45,116.63,173.45,116.63 M163.71,161.46c0,0,0-0.46,0-0.69
			c0-18.91,6.51-35.32,16.06-43.54c0.07-0.06,0.2-0.17,0.2-0.17l0,44.34L163.71,161.46z M146.34,160.82L146.34,160.82
			C146.34,160.82,146.34,160.81,146.34,160.82L146.34,160.82C146.34,160.81,146.34,160.82,146.34,160.82 M173.96,116.25
			c0,0-2.38,2.3-4.49,5.6c-5.21,8.15-8.78,17.68-10,29.46c-0.51,4.89-0.48,8.76-0.44,7.78c-0.03,0.84-0.06,2.34-0.06,2.34
			l-12.66-0.04c0,0,0.03-0.52,0.04-0.58c0,0,0,0,0-0.01c0.32-4.57,1.31-11.48,4.12-18.41c0.69-1.69,1.46-3.38,2.38-5.04
			c1.67-3,3.54-5.62,5.48-7.94c0.47-0.56,1.11-1.32,1.7-1.97c0.59-0.65,1.12-1.2,1.28-1.36c1.54-1.57,4.43-4.32,7.83-6.75
			c0.95-0.67,1.96-1.33,2.97-1.98c0.69-0.45,1.93-1.19,1.93-1.19L173.96,116.25z M165.51,115.53c-2.22,1.51-6.11,4.27-6.11,4.27
			l-13.13,14.05l-6.68,27.57l-5.38-0.02c0,0,0-0.04,0-0.05c0.77-21.2,14.1-39.19,32.77-46.73c0.02-0.01,0.07-0.03,0.07-0.03
			S166.36,114.95,165.51,115.53 M157.53,122.46c-4.51,4.76-7.01,9.28-9.46,14.1c-1.36,2.68-2.24,5.16-3.02,7.38
			c-0.15,0.42-1.39,3.84-2.17,7.75c-0.92,4.58-1.38,9.72-1.38,9.72l-7.03,0c0,0,0.5-4.73,1.17-7.68c0.88-3.92,2.35-8.37,4.56-12.75
			c1.9-3.76,4.1-7.1,6.4-9.97c1.27-1.58,3.13-3.72,5.1-5.59c2.36-2.24,4.76-4.1,4.94-4.22c0.79-0.59,1.5-1.15,2.26-1.66
			c1.7-1.14,3.29-2.09,4.63-2.85c0.72-0.41,1.29-0.75,1.75-1.03c-0.77,0.54-1.83,1.32-3.03,2.31
			C160.44,119.46,158.91,121,157.53,122.46 M146.34,160.82L146.34,160.82C146.34,160.82,146.34,160.81,146.34,160.82L146.34,160.82
			C146.34,160.81,146.34,160.82,146.34,160.82 M173.96,116.25c0,0-2.38,2.3-4.49,5.6c-5.21,8.15-8.78,17.68-10,29.46
			c-0.51,4.89-0.48,8.76-0.44,7.78c-0.03,0.84-0.06,2.34-0.06,2.34l-12.66-0.04c0,0,0.03-0.52,0.04-0.58c0,0,0,0,0-0.01
			c0.32-4.57,1.31-11.48,4.12-18.41c0.69-1.69,1.46-3.38,2.38-5.04c1.67-3,3.54-5.62,5.48-7.94c0.47-0.56,1.11-1.32,1.7-1.97
			c0.59-0.65,1.12-1.2,1.28-1.36c1.54-1.57,4.43-4.32,7.83-6.75c0.95-0.67,1.96-1.33,2.97-1.98c0.69-0.45,1.93-1.19,1.93-1.19
			L173.96,116.25z M191.86,98.76h-18.98c-0.17,0-0.32-0.14-0.32-0.32v-0.73c0-0.17,0.14-0.32,0.32-0.32h18.98
			c0.17,0,0.32,0.14,0.32,0.32v0.73C192.18,98.62,192.04,98.76,191.86,98.76 M191.86,113.09h-18.98c-0.17,0-0.32-0.14-0.32-0.32
			v-0.73c0-0.17,0.14-0.32,0.32-0.32h18.98c0.17,0,0.32,0.14,0.32,0.32v0.73C192.18,112.95,192.04,113.09,191.86,113.09
			 M233.12,166.48l-101.4,0c-0.17,0-0.32-0.14-0.32-0.32v-0.85c0-0.17,0.14-0.32,0.32-0.32h101.4c0.17,0,0.32,0.14,0.32,0.32v0.85
			C233.44,166.34,233.3,166.48,233.12,166.48 M180.61,87.41h-0.3c-0.04,0-0.07-0.03-0.07-0.07v-0.74c0-0.04,0.03-0.07,0.07-0.07h0.3
			c0.04,0,0.07,0.03,0.07,0.07v0.74C180.67,87.38,180.64,87.41,180.61,87.41 M184.45,87.41h-0.3c-0.04,0-0.07-0.03-0.07-0.07v-0.74
			c0-0.04,0.03-0.07,0.07-0.07h0.3c0.04,0,0.07,0.03,0.07,0.07v0.74C184.52,87.38,184.49,87.41,184.45,87.41 M180.25,87.57v-0.23
			h4.27v0.23H180.25z M182.56,84.5h-0.35c-0.05,0-0.09-0.04-0.09-0.09v-0.79c0-0.05,0.04-0.09,0.09-0.09h0.35
			c0.05,0,0.09,0.04,0.09,0.09v0.79C182.64,84.46,182.61,84.5,182.56,84.5 M182.26,84.49h0.25v4.96h-0.25V84.49z M175.05,96.46
			c0,0,0-0.02,0-0.03c0.02-4.22,3.3-7.63,7.35-7.63c4.04,0,7.31,3.4,7.34,7.6c0,0.02,0,0.06,0,0.06H175.05z M191.6,98.69h-18.45
			c-0.31,0-0.57-0.25-0.57-0.57v-0.15c0-0.31,0.26-0.57,0.57-0.57h18.45c0.31,0,0.57,0.25,0.57,0.57v0.15
			C192.17,98.44,191.92,98.69,191.6,98.69 M191.6,113.08h-18.45c-0.31,0-0.57-0.26-0.57-0.57v-0.15c0-0.31,0.26-0.57,0.57-0.57
			h18.45c0.31,0,0.57,0.26,0.57,0.57v0.15C192.17,112.82,191.92,113.08,191.6,113.08 M183.32,110.57h-1.85
			c-0.31,0-0.57-0.26-0.57-0.57v-9.87c0-0.31,0.25-0.57,0.57-0.57h1.85c0.31,0,0.57,0.25,0.57,0.57V110
			C183.89,110.31,183.63,110.57,183.32,110.57 M188.12,110.57h-1.85c-0.31,0-0.57-0.26-0.57-0.57v-9.87c0-0.31,0.26-0.57,0.57-0.57
			h1.85c0.31,0,0.57,0.25,0.57,0.57V110C188.69,110.31,188.43,110.57,188.12,110.57 M178.49,110.57h-1.85
			c-0.31,0-0.57-0.26-0.57-0.57v-9.87c0-0.31,0.26-0.57,0.57-0.57h1.85c0.31,0,0.57,0.25,0.57,0.57V110
			C179.06,110.31,178.8,110.57,178.49,110.57 M200.75,165.62v-2.24c0-0.26,0.21-0.48,0.48-0.48h4.48c0.26,0,0.48,0.21,0.48,0.48
			v2.09L200.75,165.62z M205.62,173.61h-4.3c-0.31,0-0.57-0.26-0.57-0.57v-4.29c0-0.31,0.25-0.57,0.57-0.57h4.3
			c0.31,0,0.57,0.25,0.57,0.57v4.29C206.19,173.35,205.93,173.61,205.62,173.61 M218.12,165.62v-2.24c0-0.26,0.21-0.48,0.48-0.48
			h4.48c0.26,0,0.48,0.21,0.48,0.48v2.09L218.12,165.62z M222.98,173.61h-4.3c-0.31,0-0.57-0.26-0.57-0.57v-4.29
			c0-0.31,0.26-0.57,0.57-0.57h4.3c0.31,0,0.57,0.25,0.57,0.57v4.29C223.55,173.35,223.3,173.61,222.98,173.61 M158.62,165.46v-2.09
			c0-0.26,0.21-0.48,0.48-0.48h4.48c0.26,0,0.48,0.21,0.48,0.48v2.25L158.62,165.46z M163.5,173.61h-4.3
			c-0.31,0-0.57-0.25-0.57-0.57v-4.3c0-0.31,0.25-0.57,0.57-0.57h4.3c0.31,0,0.57,0.25,0.57,0.57v4.3
			C164.06,173.35,163.81,173.61,163.5,173.61 M141.25,165.46v-2.09c0-0.26,0.21-0.48,0.48-0.48h4.48c0.26,0,0.48,0.21,0.48,0.48
			v2.25L141.25,165.46z M146.12,173.61h-4.3c-0.31,0-0.57-0.25-0.57-0.57v-4.3c0-0.31,0.25-0.57,0.57-0.57h4.3
			c0.31,0,0.57,0.25,0.57,0.57v4.3C146.69,173.35,146.44,173.61,146.12,173.61 M179.68,165.46v-2.09c0-0.26,0.21-0.48,0.48-0.48
			h4.48c0.26,0,0.48,0.21,0.48,0.48v2.25L179.68,165.46z M184.55,173.61h-4.3c-0.31,0-0.57-0.25-0.57-0.57v-4.3
			c0-0.31,0.25-0.57,0.57-0.57h4.3c0.31,0,0.57,0.25,0.57,0.57v4.3C185.13,173.35,184.87,173.61,184.55,173.61 M232.87,166.47
			H131.98c-0.31,0-0.57-0.26-0.57-0.57v-0.34c0-0.31,0.25-0.57,0.57-0.57h100.89c0.31,0,0.57,0.26,0.57,0.57v0.34
			C233.44,166.22,233.18,166.47,232.87,166.47 M232.87,178.41h-100.9c-0.31,0-0.57-0.26-0.57-0.57v-2.39c0-0.31,0.26-0.57,0.57-0.57
			h100.9c0.31,0,0.57,0.25,0.57,0.57v2.39C233.44,178.15,233.18,178.41,232.87,178.41"/>
		<rect x="131.25" y="224.09" class="st0" width="102.34" height="4.4"/>
		<g>
			<path class="st1" d="M131.28,191.18v-0.02c0-1.87,1.37-3.52,3.41-3.52c1.15,0,1.86,0.33,2.54,0.9l-0.5,0.58
				c-0.53-0.46-1.11-0.78-2.07-0.78c-1.51,0-2.59,1.27-2.59,2.79v0.02c0,1.62,1.04,2.83,2.7,2.83c0.78,0,1.5-0.3,1.97-0.68v-1.69
				h-2.07v-0.69h2.81v2.71c-0.63,0.56-1.59,1.04-2.73,1.04C132.61,194.68,131.28,193.13,131.28,191.18z"/>
			<path class="st1" d="M140.02,191.18v-0.02c0-1.88,1.41-3.52,3.48-3.52s3.46,1.62,3.46,3.5v0.02c0,1.88-1.41,3.52-3.48,3.52
				S140.02,193.06,140.02,191.18z M146.17,191.18v-0.02c0-1.55-1.13-2.81-2.69-2.81s-2.67,1.25-2.67,2.79v0.02
				c0,1.55,1.13,2.81,2.69,2.81S146.17,192.73,146.17,191.18z"/>
			<path class="st1" d="M149.7,187.76h2.9c0.78,0,1.39,0.22,1.78,0.6c0.28,0.29,0.44,0.65,0.44,1.09v0.02
				c0,0.89-0.54,1.34-1.08,1.58c0.81,0.24,1.46,0.71,1.46,1.64v0.02c0,1.17-0.98,1.86-2.47,1.86h-3.03V187.76z M152.47,190.79
				c0.92,0,1.57-0.42,1.57-1.22v-0.02c0-0.67-0.53-1.11-1.51-1.11h-2.07v2.34H152.47z M152.74,193.88c1.03,0,1.67-0.46,1.67-1.22
				v-0.02c0-0.74-0.62-1.17-1.81-1.17h-2.15v2.4H152.74z"/>
			<path class="st1" d="M157.9,187.76h0.77v6.81h-0.77V187.76z"/>
			<path class="st1" d="M161.77,187.76h4.92v0.7h-4.15v2.33h3.72v0.7h-3.72v2.38h4.2v0.7h-4.97V187.76z"/>
			<path class="st1" d="M169.39,187.76h2.93c0.84,0,1.51,0.25,1.94,0.68c0.33,0.33,0.53,0.81,0.53,1.34v0.02
				c0,1.13-0.78,1.79-1.85,1.98l2.09,2.78h-0.94l-1.97-2.65h-1.95v2.65h-0.77V187.76z M172.25,191.23c1.02,0,1.75-0.53,1.75-1.4
				v-0.02c0-0.84-0.64-1.34-1.74-1.34h-2.1v2.76H172.25z"/>
			<path class="st1" d="M177.53,187.76h0.72l4.29,5.46v-5.46h0.75v6.81h-0.61l-4.4-5.58v5.58h-0.75V187.76z"/>
			<path class="st1" d="M186.01,191.18v-0.02c0-1.88,1.41-3.52,3.48-3.52s3.46,1.62,3.46,3.5v0.02c0,1.88-1.41,3.52-3.48,3.52
				S186.01,193.06,186.01,191.18z M192.16,191.18v-0.02c0-1.55-1.13-2.81-2.69-2.81c-1.56,0-2.67,1.25-2.67,2.79v0.02
				c0,1.55,1.13,2.81,2.69,2.81C191.05,193.97,192.16,192.73,192.16,191.18z"/>
			<path class="st1" d="M199.72,187.76h2.36c2.14,0,3.62,1.47,3.62,3.39v0.02c0,1.92-1.48,3.41-3.62,3.41h-2.36V187.76z
				 M202.08,193.86c1.72,0,2.82-1.17,2.82-2.68v-0.02c0-1.51-1.1-2.7-2.82-2.7h-1.6v5.39H202.08z"/>
			<path class="st1" d="M208.43,187.76h4.92v0.7h-4.15v2.33h3.72v0.7h-3.72v2.38h4.2v0.7h-4.97V187.76z"/>
			<path class="st1" d="M220.08,187.76h0.77v6.1h3.83v0.71h-4.6V187.76z"/>
			<path class="st1" d="M229.73,187.71h0.72l3.1,6.86h-0.83l-0.8-1.8h-3.71l-0.81,1.8h-0.79L229.73,187.71z M231.63,192.08
				l-1.55-3.47l-1.56,3.47H231.63z"/>
		</g>
		<g>
			<path class="st1" d="M82.11,210.28c-0.88,0.29-2.11,0.25-2.95-0.83L77,206.67c-0.6-0.79-1.32-0.9-2.3-0.91v2.73
				c0,0.98,0.67,1.15,1.57,1.26c0.1,0.01,0.03,0.48-0.08,0.48h-4.26c-0.11,0-0.2-0.46-0.08-0.48c0.72-0.1,1.17-0.38,1.17-1.26v-6.26
				c0-0.93-0.49-1.19-1.17-1.38c-0.11-0.03-0.04-0.49,0.08-0.48c0.55,0.07,1.17,0.08,1.62,0.08c1.04,0,2.01-0.08,2.68-0.08
				c2.12,0,3.54,0.87,3.54,2.6c0,1.63-1.32,2.43-2.5,2.5v0.07c0.56,0,0.97,0.24,1.59,1.01l2.09,2.63c0.44,0.55,0.86,0.7,1.17,0.7
				C82.23,209.87,82.2,210.25,82.11,210.28z M78,203.34c0-1.5-0.96-2.25-2.21-2.25c-0.83,0-1.1,0.34-1.1,1.12v2.89h0.41
				C77.2,205.11,78,204.74,78,203.34z"/>
			<path class="st1" d="M84.37,209.74c0.81-0.21,1.45-0.34,1.45-1.38v-6.24c0-0.9-0.58-1.14-1.18-1.29
				c-0.11-0.03-0.04-0.49,0.07-0.48c1.03,0.11,2.8,0.08,3.65,0.08c1.28,0,2.21-0.06,3.36-0.08c0.34,0,0.34,0.23,0.27,0.55
				l-0.34,1.33c-0.04,0.2-0.39,0.2-0.45,0c-0.21-0.69-0.63-1.08-2.39-1.08c-0.98,0-1.31,0.25-1.31,0.98v2.29
				c0,0.37,0.18,0.44,0.46,0.44h0.31c1.14,0,2.12-0.11,2.7-0.63c0.14-0.13,0.45-0.1,0.32,0.18l-0.8,1.77
				c-0.11,0.25-0.32,0.23-0.48,0.01c-0.32-0.45-1.04-0.63-1.85-0.63h-0.2c-0.28,0-0.46,0.07-0.46,0.43v2.36c0,0.8,0.34,1.1,1.5,1.1
				c2.12,0,2.96-0.97,3.3-1.5c0.1-0.16,0.48-0.08,0.48,0.15c0,0.72-0.6,2.13-1.49,2.13c-0.79-0.04-1.56-0.08-2.74-0.08
				c-1.29,0-2.82-0.04-4.1,0.08C84.31,210.26,84.26,209.77,84.37,209.74z"/>
			<path class="st1" d="M98.38,206.46v2.02c0,0.98,0.67,1.15,1.57,1.26c0.1,0.01,0.03,0.48-0.08,0.48h-4.26
				c-0.11,0-0.2-0.46-0.08-0.48c0.72-0.1,1.17-0.38,1.17-1.26v-6.26c0-0.93-0.49-1.19-1.17-1.38c-0.11-0.03-0.04-0.49,0.08-0.48
				c0.55,0.07,1.17,0.08,1.62,0.08c1.04,0,1.91-0.08,2.63-0.08c2.18,0,3.98,0.8,3.98,3.01C103.83,205.87,101.48,206.92,98.38,206.46
				z M98.38,202.21v3.55c2.39,0.34,3.64-0.24,3.64-2.08c0-1.67-1.07-2.6-2.51-2.6C98.62,201.09,98.38,201.4,98.38,202.21z"/>
			<path class="st1" d="M107.79,206.54v-4.41c0-0.89-0.45-1.18-1.14-1.26c-0.11-0.01-0.03-0.48,0.08-0.48h3.83
				c0.11,0,0.2,0.46,0.08,0.48c-0.56,0.07-1.12,0.28-1.12,1.26v4.48c0,1.97,1.14,2.88,2.63,2.88c1.53,0,2.75-0.91,2.75-2.88v-4.48
				c0-0.91-0.52-1.17-1.21-1.26c-0.1-0.01-0.03-0.48,0.08-0.48h3.16c0.1,0,0.18,0.46,0.07,0.48c-0.56,0.07-1.12,0.28-1.12,1.26v4.4
				c0,2.59-1.67,3.92-3.9,3.92C110.01,210.45,107.79,209.39,107.79,206.54z M111.92,196.89c0.25-0.36,1.43,0.72,1.1,0.97l-1.84,1.39
				c-0.18,0.14-0.67-0.31-0.53-0.51L111.92,196.89z"/>
			<path class="st1" d="M128.26,207.38c0,1.74-1.59,2.86-3.93,2.86c-0.67,0-1.46-0.08-2.5-0.08c-0.89,0-1.56,0.01-2.21,0.08
				c-0.13,0.01-0.2-0.48-0.08-0.5c0.81-0.21,1.45-0.34,1.45-1.38v-6.24c0-0.9-0.58-1.14-1.18-1.29c-0.11-0.03-0.04-0.49,0.07-0.48
				c0.58,0.07,1.25,0.08,1.7,0.08c1.12,0,1.95-0.08,2.57-0.08c1.81,0,3.3,0.76,3.31,2.3c0.01,1.14-0.79,1.92-1.77,2.12v0.08
				C127,204.87,128.26,205.81,128.26,207.38z M122.67,202.13v2.5h1.45c1.01,0,1.6-0.51,1.6-1.59c0-1.33-0.9-1.95-2.05-1.95
				C122.92,201.09,122.67,201.34,122.67,202.13z M126.45,207.69c0-1.54-1.03-2.36-2.33-2.36h-1.45v3.03c0,0.77,0.39,1.15,1.62,1.15
				C125.52,209.52,126.45,209.15,126.45,207.69z"/>
			<path class="st1" d="M130.95,209.74c0.81-0.21,1.45-0.34,1.45-1.38v-6.24c0-0.98-0.58-1.18-1.18-1.26
				c-0.11-0.01-0.03-0.48,0.07-0.48h3.88c0.1,0,0.17,0.46,0.07,0.48c-0.59,0.07-1.15,0.28-1.15,1.26v6.24c0,0.8,0.34,1.1,1.5,1.1
				c2.12,0,2.96-0.97,3.3-1.5c0.1-0.16,0.48-0.08,0.48,0.15c0,0.72-0.6,2.13-1.49,2.13c-0.79-0.04-1.56-0.08-2.74-0.08
				c-1.29,0-2.82-0.04-4.1,0.08C130.89,210.26,130.84,209.77,130.95,209.74z"/>
			<path class="st1" d="M141.84,209.74c0.72-0.1,1.17-0.38,1.17-1.26v-6.35c0-0.89-0.45-1.17-1.17-1.26
				c-0.11-0.01-0.03-0.48,0.08-0.48h3.85c0.11,0,0.2,0.46,0.08,0.48c-0.6,0.08-1.17,0.28-1.17,1.26v6.35c0,0.98,0.56,1.18,1.17,1.26
				c0.11,0.01,0.03,0.48-0.08,0.48h-3.85C141.81,210.22,141.73,209.76,141.84,209.74z"/>
			<path class="st1" d="M148.81,205.49c0-2.43,1.49-5.32,5.42-5.32c1.63,0,3.03,0.51,2.87,1l-0.18,0.55
				c-0.51,1.5-1.05-0.42-3.55-0.42c-2.01,0-2.99,1.31-2.99,3.33c0,3.16,2.4,4.48,4.33,4.48c0.25,0,1.53-0.2,2.26-0.66
				c0.11-0.07,0.41,0.25,0.32,0.38c-0.6,0.89-2.49,1.63-2.92,1.63C152,210.45,148.81,209.07,148.81,205.49z"/>
			<path class="st1" d="M170.11,210.22h-3.71c-0.18,0-0.2-0.45-0.04-0.48c0.52-0.1,1.08-0.28,0.56-1.49l-0.15-0.35
				c-0.14-0.34-0.38-0.37-0.8-0.37h-2.87c-0.42,0-0.66,0.03-0.8,0.37l-0.14,0.35c-0.49,1.21,0.04,1.39,0.72,1.49
				c0.18,0.03,0.14,0.48-0.04,0.48h-3.03c-0.17,0-0.21-0.45-0.04-0.48c0.58-0.1,0.91-0.3,1.43-1.49l2.37-5.45
				c0.55-1.24,0.72-1.81,0.72-2.35c0-0.08,0.98-0.31,1.03-0.21l3.43,7.99c0.51,1.19,0.84,1.42,1.4,1.5
				C170.33,209.77,170.28,210.22,170.11,210.22z M166.19,206.53l-1.64-3.93l-1.66,3.93c-0.08,0.2,0.13,0.23,0.32,0.23h2.65
				C166.06,206.75,166.27,206.72,166.19,206.53z"/>
			<path class="st1" d="M176.9,209.74c0.81-0.21,1.45-0.34,1.45-1.38v-6.24c0-0.9-0.58-1.14-1.18-1.29
				c-0.11-0.03-0.04-0.49,0.07-0.48c0.58,0.07,1.17,0.08,1.76,0.08c1.1,0,2.08-0.08,2.8-0.08c3.4,0,5.24,2.02,5.24,4.73
				c0,2.7-1.84,5.15-5.25,5.15c-0.67,0-1.54-0.08-2.58-0.08c-0.87,0-1.56,0.01-2.21,0.08C176.84,210.26,176.79,209.77,176.9,209.74z
				 M185.34,205.89c0-2.68-1.46-4.79-3.99-4.79c-1,0-1.32,0.31-1.32,1.03v6.24c0,0.76,0.52,1.14,1.88,1.14
				C184.2,209.5,185.34,208.27,185.34,205.89z"/>
			<path class="st1" d="M190.08,205.36c0-2.84,2.02-5.2,5.1-5.2c2.94,0,5.07,2.15,5.07,5.07c0,2.85-2.01,5.21-5.1,5.21
				C192.23,210.45,190.08,208.28,190.08,205.36z M198.58,206.02c0-2.84-1.92-4.9-3.95-4.9c-1.24,0-2.87,0.81-2.87,3.46
				c0,2.87,1.92,4.92,3.93,4.92C196.94,209.49,198.58,208.68,198.58,206.02z"/>
			<path class="st1" d="M215.52,210.22h-3.67c-0.1,0-0.17-0.46-0.08-0.48c0.59-0.1,1.03-0.38,0.98-1.26l-0.27-4.72l-2.28,4.64
				c-0.29,0.6-0.52,1.22-0.56,1.45c-0.03,0.17-0.32,0.25-0.55,0.25c-0.21,0-0.35-0.08-0.44-0.25l-3.24-6.15l-0.21,4.79
				c-0.04,0.98,0.53,1.21,0.98,1.26c0.11,0.01,0.03,0.48-0.07,0.48h-2.91c-0.11,0-0.2-0.46-0.08-0.48c0.6-0.07,1.11-0.28,1.17-1.26
				l0.45-8.06c0.01-0.24,0.55-0.25,0.69,0l4.07,7.61l3.78-7.61c0.13-0.25,0.69-0.24,0.7,0l0.45,8.06c0.06,0.98,0.56,1.19,1.15,1.26
				C215.71,209.76,215.62,210.22,215.52,210.22z"/>
			<path class="st1" d="M218.41,209.74c0.72-0.1,1.17-0.38,1.17-1.26v-6.35c0-0.89-0.45-1.17-1.17-1.26
				c-0.11-0.01-0.03-0.48,0.08-0.48h3.85c0.11,0,0.2,0.46,0.08,0.48c-0.6,0.08-1.17,0.28-1.17,1.26v6.35c0,0.98,0.56,1.18,1.17,1.26
				c0.11,0.01,0.03,0.48-0.08,0.48h-3.85C218.38,210.22,218.3,209.76,218.41,209.74z"/>
			<path class="st1" d="M233.97,210.09l-6.69-6.99v5.34c0,0.96,0.56,1.11,1.36,1.31c0.11,0.03,0.06,0.48-0.08,0.48h-3.33
				c-0.11,0-0.2-0.44-0.07-0.48c0.59-0.2,1.15-0.31,1.15-1.31v-5.45c0-1-0.15-1.47-0.52-1.97c-0.13-0.17-0.25-0.28-0.25-0.32
				c0-0.13,0.08-0.31,0.28-0.31h1.04c0.14,0,0.24,0.01,0.34,0.13l6.54,6.92v-5.28c0-1-0.63-1.11-1.36-1.29
				c-0.11-0.03-0.06-0.48,0.08-0.48h3.33c0.11,0,0.18,0.45,0.07,0.48c-0.62,0.18-1.15,0.3-1.15,1.29v5.46
				c0,0.93,0.03,1.95,0.17,2.47c0.06,0.21-0.17,0.27-0.39,0.27C234.26,210.36,234.13,210.26,233.97,210.09z"/>
			<path class="st1" d="M238.69,209.74c0.72-0.1,1.17-0.38,1.17-1.26v-6.35c0-0.89-0.45-1.17-1.17-1.26
				c-0.11-0.01-0.03-0.48,0.08-0.48h3.85c0.11,0,0.2,0.46,0.08,0.48c-0.6,0.08-1.17,0.28-1.17,1.26v6.35c0,0.98,0.56,1.18,1.17,1.26
				c0.11,0.01,0.03,0.48-0.08,0.48h-3.85C238.66,210.22,238.57,209.76,238.69,209.74z"/>
			<path class="st1" d="M245.67,205.49c0-2.43,1.49-5.32,5.42-5.32c1.63,0,3.03,0.51,2.87,1l-0.18,0.55
				c-0.51,1.5-1.05-0.42-3.55-0.42c-2.01,0-2.99,1.31-2.99,3.33c0,3.16,2.4,4.48,4.33,4.48c0.25,0,1.53-0.2,2.26-0.66
				c0.11-0.07,0.41,0.25,0.32,0.38c-0.6,0.89-2.49,1.63-2.92,1.63C248.86,210.45,245.67,209.07,245.67,205.49z"/>
			<path class="st1" d="M266.95,210.22h-3.71c-0.18,0-0.2-0.45-0.04-0.48c0.52-0.1,1.08-0.28,0.56-1.49l-0.15-0.35
				c-0.14-0.34-0.38-0.37-0.8-0.37h-2.87c-0.42,0-0.66,0.03-0.8,0.37l-0.14,0.35c-0.49,1.21,0.04,1.39,0.72,1.49
				c0.18,0.03,0.14,0.48-0.04,0.48h-3.03c-0.17,0-0.21-0.45-0.04-0.48c0.58-0.1,0.91-0.3,1.43-1.49l2.37-5.45
				c0.55-1.24,0.72-1.81,0.72-2.35c0-0.08,0.98-0.31,1.03-0.21l3.43,7.99c0.51,1.19,0.84,1.42,1.4,1.5
				C267.18,209.77,267.12,210.22,266.95,210.22z M263.04,206.53l-1.64-3.93l-1.66,3.93c-0.08,0.2,0.13,0.23,0.32,0.23h2.65
				C262.91,206.75,263.12,206.72,263.04,206.53z"/>
			<path class="st1" d="M278.39,210.09l-6.69-6.99v5.34c0,0.96,0.56,1.11,1.36,1.31c0.11,0.03,0.06,0.48-0.08,0.48h-3.33
				c-0.11,0-0.2-0.44-0.07-0.48c0.59-0.2,1.15-0.31,1.15-1.31v-5.45c0-1-0.15-1.47-0.52-1.97c-0.13-0.17-0.25-0.28-0.25-0.32
				c0-0.13,0.08-0.31,0.28-0.31h1.04c0.14,0,0.24,0.01,0.34,0.13l6.54,6.92v-5.28c0-1-0.63-1.11-1.36-1.29
				c-0.11-0.03-0.06-0.48,0.08-0.48h3.33c0.11,0,0.18,0.45,0.07,0.48c-0.62,0.18-1.15,0.3-1.15,1.29v5.46
				c0,0.93,0.03,1.95,0.17,2.47c0.06,0.21-0.17,0.27-0.39,0.27C278.67,210.36,278.55,210.26,278.39,210.09z"/>
			<path class="st1" d="M292.89,210.22h-3.71c-0.18,0-0.2-0.45-0.04-0.48c0.52-0.1,1.08-0.28,0.56-1.49l-0.15-0.35
				c-0.14-0.34-0.38-0.37-0.8-0.37h-2.87c-0.42,0-0.66,0.03-0.8,0.37l-0.14,0.35c-0.49,1.21,0.04,1.39,0.72,1.49
				c0.18,0.03,0.14,0.48-0.04,0.48h-3.03c-0.17,0-0.21-0.45-0.04-0.48c0.58-0.1,0.91-0.3,1.43-1.49l2.37-5.45
				c0.55-1.24,0.72-1.81,0.72-2.35c0-0.08,0.98-0.31,1.03-0.21l3.43,7.99c0.51,1.19,0.84,1.42,1.4,1.5
				C293.12,209.77,293.06,210.22,292.89,210.22z M288.98,206.53l-1.64-3.93l-1.66,3.93c-0.08,0.2,0.13,0.23,0.32,0.23h2.65
				C288.85,206.75,289.06,206.72,288.98,206.53z"/>
		</g>
	</g>
</g>
</svg>
