<svg xmlns="http://www.w3.org/2000/svg" width="734.04" height="489.308" viewBox="0 0 734.04 489.308">
  <g id="login" transform="translate(-34.875 -83.53)">
    <g id="Group_21" data-name="Group 21" transform="translate(34.875 477.703)">
      <path id="Path_2" data-name="Path 2" d="M35.065,273.674c2.638-.685,4.641-1.09,4.641-4.463V249.227c0-2.815-1.826-3.55-3.779-4.083-.355-.1-.127-1.674.228-1.623,3.272.406,9.662.279,12,.279,4.134,0,7.05-.178,10.905-.279,1.091,0,1.141.735.913,1.775l-1.091,4.362c-.127.634-1.268.634-1.446,0-.735-2.282-2.054-3.4-7.634-3.4-2.993,0-4.007.812-4.007,3.043v7.3c0,1.192.583,1.42,1.5,1.42h1.04c3.449,0,6.721-.456,8.5-1.953.456-.406,1.446-.33,1.04.634l-2.536,5.731c-.355.913-1.091.812-1.6.1-1.04-1.5-3.322-2.08-5.731-2.08h-.735c-.913,0-1.5.228-1.5,1.42v7.405c0,2.587.964,3.627,4.641,3.627,6.442,0,9.485-3.271,10.525-4.869.33-.456,1.648-.178,1.648.583,0,2.13-2.054,6.949-4.945,6.9-2.815-.127-5-.279-8.775-.279-4.134,0-9.434-.127-13.543.279C34.887,275.526,34.71,273.751,35.065,273.674Z" transform="translate(-34.875 -231.949)" fill="#ec272d"/>
      <path id="Path_3" data-name="Path 3" d="M48.12,260.531c0-7.811,4.717-17.271,17.626-17.271,5.326,0,9.865,1.623,9.257,3.221l-.634,1.9c-1.826,5.326-3.272-1.268-11.641-1.268-6.416,0-9.231,4.235-9.231,10.449,0,10.271,7.811,14.253,13.669,14.253.862,0,5.326-.634,7.279-1.9.355-.228,1.42.913,1.141,1.319-1.953,2.866-8.141,5.275-9.637,5.275C58.34,276.508,48.12,272.07,48.12,260.531Z" transform="translate(-14.531 -232.347)" fill="#ec272d"/>
      <path id="Path_4" data-name="Path 4" d="M61.21,260.074c0-9.181,6.594-16.814,16.535-16.814,9.485,0,16.484,6.9,16.484,16.408,0,9.231-6.543,16.839-16.586,16.839A16,16,0,0,1,61.21,260.074Zm27.034,2.282c0-9-6.036-15.749-12.3-15.749-3.855,0-8.673,2.637-8.673,10.8,0,9.13,6.036,15.8,12.3,15.8C83.375,273.211,88.244,270.573,88.244,262.357Z" transform="translate(5.577 -232.348)" fill="#ec272d"/>
      <path id="Path_5" data-name="Path 5" d="M105.2,274.931,83.767,253.1V269.4c0,3.145,1.826,3.6,4.641,4.261.355.1.178,1.674-.279,1.674H76.92c-.355,0-.634-1.5-.228-1.674,1.725-.685,3.677-.862,3.677-4.261V252.132c0-3.5-.634-4.768-1.6-6.315-.456-.685-.913-1.09-.913-1.217a1.007,1.007,0,0,1,.989-1.04h3.5a1.268,1.268,0,0,1,1.09.406L104.411,265.6v-16.18c0-3.221-2.08-3.55-4.641-4.184-.355-.1-.178-1.674.279-1.674h11.209c.355,0,.558,1.6.228,1.674-2,.634-3.728.964-3.728,4.184v17.347a41.317,41.317,0,0,0,.558,8.166c.178.685-.507.862-1.319.862A2.323,2.323,0,0,1,105.2,274.931Z" transform="translate(29.049 -231.887)" fill="#ec272d"/>
      <path id="Path_6" data-name="Path 6" d="M92.65,260.074c0-9.181,6.594-16.814,16.535-16.814,9.485,0,16.484,6.9,16.484,16.408,0,9.231-6.543,16.839-16.586,16.839A16,16,0,0,1,92.65,260.074Zm27.034,2.282c0-9-6.036-15.749-12.3-15.749-3.855,0-8.673,2.637-8.673,10.8,0,9.13,6.036,15.8,12.3,15.8C114.815,273.211,119.684,270.573,119.684,262.357Z" transform="translate(53.87 -232.348)" fill="#ec272d"/>
      <path id="Path_7" data-name="Path 7" d="M148.465,275.656h-12.5c-.33,0-.558-1.623-.279-1.674,2.054-.355,3.373-1.369,3.221-4.083l-.862-14.3-6.847,14.075a28.073,28.073,0,0,0-1.9,4.768c-.1.533-1.192.812-1.953.812a1.532,1.532,0,0,1-1.5-.812l-10.271-19.35-.634,14.811c-.127,3.322,1.9,3.956,3.221,4.083.355.051.1,1.674-.178,1.674h-9.713c-.355,0-.634-1.623-.279-1.674,1.953-.228,3.551-.913,3.728-4.083l1.5-25.893c.051-.812,1.953-.913,2.511,0l13.137,24.3,12.122-24.3c.457-.913,2.511-.812,2.536-.051l1.5,25.944c.178,3.17,1.826,3.906,3.677,4.083C149.048,274.007,148.795,275.656,148.465,275.656Z" transform="translate(77.18 -232.206)" fill="#ec272d"/>
      <path id="Path_8" data-name="Path 8" d="M126.75,280.708c2.359-.33,3.728-1.268,3.728-4.083V256.362c0-2.815-1.369-3.779-3.728-4.083-.355-.051-.1-1.674.279-1.674h12.985c.355,0,.634,1.623.279,1.674-1.9.279-3.728.913-3.728,4.083v20.263c0,3.17,1.826,3.8,3.728,4.083.355.051.1,1.674-.279,1.674H127.029C126.648,282.407,126.369,280.759,126.75,280.708Zm6.949-41.515c.812-1.192,4.768,2.485,3.677,3.271l-5.909,4.464c-.583.456-2.282-1.141-1.826-1.775Z" transform="translate(105.971 -238.957)" fill="#ec272d"/>
      <path id="Path_9" data-name="Path 9" d="M168.143,275.658H155.614c-.634,0-.634-1.547-.127-1.623,1.623-.33,3.5-.862,1.826-4.717l-.355-.761c-.456-1.141-1.09-1.268-2.359-1.268h-9.079c-1.369,0-2,.127-2.46,1.268l-.279.761c-1.6,3.8.127,4.464,2.308,4.717.583.1.456,1.623-.127,1.623H134.92c-.533,0-.685-1.547-.127-1.623,1.851-.33,2.942-.913,4.59-4.717l7.684-17.7c1.775-4.007,2.308-5.757,2.308-7.507,0-.279,3.17-.989,3.322-.685l11.083,25.842c1.6,3.779,2.688,4.489,4.489,4.768C168.878,274.111,168.7,275.658,168.143,275.658ZM154.93,263.79l-4.895-11.843L145.09,263.79c-.279.634.355.735.964.735h7.938C154.575,264.525,155.259,264.424,154.93,263.79Z" transform="translate(118.064 -232.208)" fill="#ec272d"/>
      <path id="Path_10" data-name="Path 10" d="M150.1,266.78c1.851-1.6,4.184-4.438,4.184-6.543,0-1.192-2.916-1.9-2.916-3.17,0-1.319,2.587-3.677,3.728-3.677,1.192,0,3.627,2.409,3.627,3.728,0,3.449-3.272,8.09-7.3,10.728C150.965,268.1,149.62,267.186,150.1,266.78Z" transform="translate(141.963 -216.787)" fill="#ec272d"/>
      <path id="Path_11" data-name="Path 11" d="M170.491,263.267v6.365c0,3.221,2.232,3.779,5.047,4.083.33.051.1,1.674-.279,1.674h-14.3c-.355,0-.634-1.623-.279-1.674,2.359-.33,3.728-1.268,3.728-4.083V249.648c0-2.993-1.547-3.855-3.728-4.463-.355-.1-.127-1.725.279-1.674a43.084,43.084,0,0,0,5.275.279c3.6,0,6.492-.279,8.8-.279,7.279,0,13.137,2.587,13.137,9.713C188.167,261.289,180.585,264.814,170.491,263.267Zm0-13.619v11.311c7.405.989,11.133-.989,11.133-6.67,0-4.945-3.094-8.217-7.862-8.217C171.125,246.072,170.491,246.985,170.491,249.648Z" transform="translate(158.093 -231.964)" fill="#ec272d"/>
      <path id="Path_12" data-name="Path 12" d="M173.274,273.628c2.637-.685,4.641-1.09,4.641-4.463V249.307c0-3.17-1.826-3.8-3.779-4.083-.355-.051-.1-1.674.228-1.674h13.086c.33,0,.558,1.623.228,1.674-1.851.177-3.677.913-3.677,4.083v19.857c0,2.587.964,3.627,4.641,3.627,6.442,0,9.485-3.271,10.525-4.869.33-.456,1.648-.178,1.648.583,0,2.13-2.054,6.949-4.945,6.9-2.815-.127-5-.279-8.775-.279-4.134,0-9.434-.127-13.543.279C173.1,275.479,172.919,273.7,173.274,273.628Z" transform="translate(177.425 -231.902)" fill="#ec272d"/>
      <path id="Path_13" data-name="Path 13" d="M219.713,275.658H207.184c-.634,0-.634-1.547-.127-1.623,1.623-.33,3.5-.862,1.826-4.717l-.355-.761c-.456-1.141-1.09-1.268-2.359-1.268h-9.079c-1.369,0-2,.127-2.46,1.268l-.279.761c-1.6,3.8.127,4.464,2.308,4.717.583.1.456,1.623-.127,1.623H186.49c-.533,0-.685-1.547-.127-1.623,1.851-.33,2.942-.913,4.59-4.717l7.684-17.7c1.775-4.007,2.308-5.757,2.308-7.507,0-.279,3.17-.989,3.322-.685l11.083,25.842c1.6,3.779,2.688,4.489,4.489,4.768C220.423,274.111,220.245,275.658,219.713,275.658ZM206.474,263.79l-4.895-11.843-4.945,11.843c-.279.634.355.735.964.735h7.938C206.119,264.525,206.8,264.424,206.474,263.79Z" transform="translate(197.279 -232.208)" fill="#ec272d"/>
      <path id="Path_14" data-name="Path 14" d="M230.577,274.931,209.147,253.1V269.4c0,3.145,1.826,3.6,4.641,4.261.355.1.178,1.674-.279,1.674H202.3c-.355,0-.634-1.5-.228-1.674,1.724-.685,3.677-.862,3.677-4.261V252.132c0-3.5-.634-4.768-1.6-6.315-.456-.685-.913-1.09-.913-1.217a1.007,1.007,0,0,1,.989-1.04h3.5a1.268,1.268,0,0,1,1.091.406L229.791,265.6v-16.18c0-3.221-2.08-3.55-4.641-4.184-.355-.1-.178-1.674.279-1.674h11.209c.355,0,.558,1.6.228,1.674-2,.634-3.728.964-3.728,4.184v17.347a41.316,41.316,0,0,0,.558,8.166c.178.685-.507.862-1.319.862A2.323,2.323,0,0,1,230.577,274.931Z" transform="translate(221.641 -231.887)" fill="#ec272d"/>
      <path id="Path_15" data-name="Path 15" d="M218.463,273.653c2.359-.33,3.728-1.268,3.728-4.083V249.307c0-2.815-1.369-3.779-3.728-4.083-.355-.051-.1-1.674.279-1.674h12.985c.355,0,.634,1.623.279,1.674-1.9.279-3.728.913-3.728,4.083V269.57c0,3.17,1.826,3.8,3.728,4.083.355.051.1,1.674-.279,1.674H218.742C218.387,275.352,218.108,273.7,218.463,273.653Z" transform="translate(246.866 -231.902)" fill="#ec272d"/>
      <path id="Path_16" data-name="Path 16" d="M226.366,273.674c2.638-.685,4.641-1.09,4.641-4.463V249.227c0-2.815-1.826-3.55-3.779-4.083-.355-.1-.127-1.674.228-1.623,3.271.406,9.662.279,12,.279,4.134,0,7.05-.178,10.905-.279,1.091,0,1.141.735.913,1.775l-1.091,4.362c-.127.634-1.268.634-1.446,0-.735-2.282-2.054-3.4-7.634-3.4-2.993,0-4.007.812-4.007,3.043v7.76c0,1.192.583,1.42,1.5,1.42h1.04c3.449,0,6.721-.456,8.5-1.953.456-.406,1.446-.33,1.04.634l-2.536,5.731c-.355.913-1.09.812-1.6.1-1.04-1.5-3.322-2.08-5.732-2.08h-.735c-.913,0-1.5.228-1.5,1.42v6.949c0,3.373,1.953,3.6,5.808,4.463.355.1.178,1.851-.279,1.826-3.5-.228-5.731-.279-8.572-.279a71.242,71.242,0,0,0-7.405.279C226.163,275.526,225.985,273.751,226.366,273.674Z" transform="translate(258.948 -231.949)" fill="#ec272d"/>
      <path id="Path_17" data-name="Path 17" d="M238.843,273.653c2.359-.33,3.728-1.268,3.728-4.083V249.307c0-2.815-1.369-3.779-3.728-4.083-.355-.051-.1-1.674.279-1.674h12.985c.355,0,.634,1.623.279,1.674-1.9.279-3.728.913-3.728,4.083V269.57c0,3.17,1.826,3.8,3.728,4.083.355.051.1,1.674-.279,1.674H239.122C238.742,275.352,238.488,273.7,238.843,273.653Z" transform="translate(278.171 -231.902)" fill="#ec272d"/>
      <path id="Path_18" data-name="Path 18" d="M246.41,260.531c0-7.811,4.717-17.271,17.626-17.271,5.326,0,9.865,1.623,9.257,3.221l-.634,1.9c-1.826,5.326-3.271-1.268-11.641-1.268-6.416,0-9.231,4.235-9.231,10.449,0,10.271,7.811,14.253,13.669,14.253.862,0,5.326-.634,7.279-1.9.355-.228,1.42.913,1.141,1.319-1.953,2.866-8.141,5.275-9.637,5.275C256.63,276.508,246.41,272.07,246.41,260.531Z" transform="translate(290.056 -232.347)" fill="#ec272d"/>
      <path id="Path_19" data-name="Path 19" d="M293.042,275.658H280.514c-.634,0-.634-1.547-.127-1.623,1.623-.33,3.5-.862,1.826-4.717l-.355-.761c-.456-1.141-1.091-1.268-2.359-1.268h-9.079c-1.37,0-2,.127-2.46,1.268l-.279.761c-1.6,3.8.127,4.464,2.308,4.717.583.1.456,1.623-.127,1.623H259.82c-.533,0-.685-1.547-.127-1.623,1.851-.33,2.942-.913,4.59-4.717l7.684-17.7c1.775-4.007,2.308-5.757,2.308-7.507,0-.279,3.17-.989,3.322-.685l11.083,25.842c1.6,3.779,2.688,4.489,4.489,4.768C293.753,274.111,293.575,275.658,293.042,275.658ZM279.83,263.79l-4.895-11.843L269.99,263.79c-.279.634.355.735.964.735h7.938C279.449,264.525,280.134,264.424,279.83,263.79Z" transform="translate(309.919 -232.208)" fill="#ec272d"/>
      <path id="Path_20" data-name="Path 20" d="M274.08,260.531c0-7.811,4.717-17.271,17.626-17.271,5.326,0,9.865,1.623,9.257,3.221l-.634,1.9c-1.826,5.326-3.272-1.268-11.641-1.268-6.416,0-9.231,4.235-9.231,10.449,0,10.271,7.811,14.253,13.669,14.253.862,0,5.326-.634,7.278-1.9.355-.228,1.42.913,1.141,1.319-1.953,2.866-8.141,5.275-9.637,5.275C284.3,276.508,274.08,272.07,274.08,260.531Z" transform="translate(332.558 -232.347)" fill="#ec272d"/>
      <path id="Path_21" data-name="Path 21" d="M287.6,273.653c2.359-.33,3.728-1.268,3.728-4.083V249.307c0-2.815-1.37-3.779-3.728-4.083-.355-.051-.1-1.674.279-1.674h12.985c.355,0,.634,1.623.279,1.674-1.9.279-3.728.913-3.728,4.083V269.57c0,3.17,1.826,3.8,3.728,4.083.355.051.1,1.674-.279,1.674H287.882C287.527,275.352,287.248,273.7,287.6,273.653Z" transform="translate(353.069 -231.902)" fill="#ec272d"/>
      <path id="Path_22" data-name="Path 22" d="M295.17,266.684c0-9.181,6.594-16.814,16.535-16.814,9.485,0,16.484,6.9,16.484,16.408,0,9.231-6.543,16.839-16.586,16.839A16,16,0,0,1,295.17,266.684Zm27.034,2.282c0-9-6.036-15.749-12.3-15.749-3.855,0-8.673,2.637-8.673,10.8,0,9.13,6.036,15.8,12.3,15.8C317.335,279.82,322.2,277.183,322.2,268.966Zm-10.347-29.773c.812-1.192,4.768,2.485,3.677,3.271l-5.909,4.464c-.583.456-2.282-1.141-1.826-1.775Z" transform="translate(364.954 -238.957)" fill="#ec272d"/>
      <path id="Path_23" data-name="Path 23" d="M339.157,274.931,317.727,253.1V269.4c0,3.145,1.826,3.6,4.641,4.261.355.1.178,1.674-.279,1.674H310.88c-.355,0-.634-1.5-.228-1.674,1.725-.685,3.677-.862,3.677-4.261V252.132c0-3.5-.634-4.768-1.6-6.315-.456-.685-.913-1.09-.913-1.217a1.007,1.007,0,0,1,.989-1.04h3.5a1.268,1.268,0,0,1,1.09.406L338.371,265.6v-16.18c0-3.221-2.08-3.55-4.641-4.184-.355-.1-.178-1.674.279-1.674h11.209c.355,0,.558,1.6.228,1.674-2,.634-3.728.964-3.728,4.184v17.347a43.739,43.739,0,0,0,.533,8.166c.178.685-.507.862-1.319.862A2.311,2.311,0,0,1,339.157,274.931Z" transform="translate(388.426 -231.887)" fill="#ec272d"/>
      <path id="Path_24" data-name="Path 24" d="M134.371,265.278c-1.725.279-3.322,1.5-5.351,4.717L121.843,281.2v8.445c0,3.17,1.826,3.728,4.59,4.083.33.051.1,1.674-.279,1.674H111.445c-.355,0-.583-1.623-.279-1.674,3.043-.406,4.641-1.04,4.641-4.083v-8.318l-7.532-11.311c-2.054-3.043-3.322-4.438-5.275-4.768-.583-.1-.456-1.623.127-1.623h12.579c.583,0,.634,1.547.127,1.623-2,.33-2.714,1.826-.812,4.717l5.554,8.217,5.326-8.217c1.851-2.866.685-4.362-1.648-4.717-.685-.1-.456-1.623.1-1.623h9.891C134.726,263.655,134.878,265.177,134.371,265.278Z" transform="translate(69.186 -201.058)" fill="#ec272d"/>
      <path id="Path_25" data-name="Path 25" d="M121.821,293.755c2.638-.685,4.641-1.091,4.641-4.464V269.307c0-2.815-1.826-3.6-3.779-4.083-.355-.1-.127-1.674.228-1.623a48.721,48.721,0,0,0,5.96.279c3.8,0,7-.279,9.257-.279,10.8,0,16.941,6.543,16.941,15.318,0,8.547-5.985,16.662-16.992,16.662-2.13,0-4.945-.279-8.572-.279a68.082,68.082,0,0,0-7.405.279C121.643,295.631,121.44,293.856,121.821,293.755Zm27.212-12c0-8.9-4.641-15.622-12.4-15.622-2.993,0-4.083.964-4.083,3.17v19.984c0,2.409,1.9,3.728,6.315,3.728C145.837,293.044,149.033,289.215,149.033,281.759Z" transform="translate(98.372 -201.105)" fill="#ec272d"/>
      <path id="Path_26" data-name="Path 26" d="M136.9,293.755c2.637-.685,4.641-1.091,4.641-4.464V269.307c0-2.815-1.826-3.55-3.779-4.083-.355-.1-.127-1.674.228-1.623,3.272.406,9.662.279,12,.279,4.134,0,7.05-.178,10.905-.279,1.091,0,1.141.735.913,1.775l-1.09,4.362c-.127.634-1.268.634-1.446,0-.735-2.282-2.054-3.4-7.634-3.4-2.993,0-4.007.812-4.007,3.043v7.3c0,1.192.583,1.42,1.5,1.42h1.04c3.449,0,6.721-.456,8.5-1.953.456-.406,1.446-.33,1.04.634l-2.536,5.732c-.355.913-1.09.812-1.6.1-1.04-1.5-3.322-2.08-5.732-2.08H149.1c-.913,0-1.5.228-1.5,1.42v7.405c0,2.587.964,3.627,4.641,3.627,6.442,0,9.485-3.272,10.525-4.869.33-.456,1.648-.178,1.648.583,0,2.13-2.054,6.949-4.945,6.9-2.815-.127-5-.279-8.775-.279-4.134,0-9.434-.127-13.543.279C136.727,295.631,136.55,293.856,136.9,293.755Z" transform="translate(121.557 -201.105)" fill="#ec272d"/>
      <path id="Path_27" data-name="Path 27" d="M150.263,292.956l.456-1.775c1.369-5.047,2.993,2.232,10.5,2.232,3.677,0,5.275-1.775,5.275-4.261,0-1.9-1.141-2.764-4.59-4.945l-3.8-2.536c-5.123-3.322-7.3-5.123-7.3-8.724,0-5.757,5.681-9.586,11.209-9.586,3.4,0,7.913,1.5,7.405,3.043l-.583,1.775c-1.547,4.717-2.587-1.6-8.8-1.6-3.043,0-4.641,1.5-4.641,3.8,0,2.08,1.268,3.17,4.261,5.1l4.311,2.764c4.945,3.145,7,5.174,7,8.547,0,5.757-5.579,9.815-11.666,9.815C155.538,296.582,149.7,294.985,150.263,292.956Z" transform="translate(142.31 -201.473)" fill="#ec272d"/>
      <path id="Path_28" data-name="Path 28" d="M193.923,295.738H181.394c-.634,0-.634-1.547-.127-1.623,1.623-.33,3.5-.862,1.826-4.717l-.355-.761c-.456-1.141-1.091-1.268-2.359-1.268H171.3c-1.369,0-2,.127-2.46,1.268l-.279.761c-1.6,3.8.127,4.464,2.308,4.717.583.1.456,1.623-.127,1.623H160.7c-.533,0-.685-1.547-.127-1.623,1.851-.33,2.942-.913,4.59-4.717l7.684-17.7c1.775-4.007,2.308-5.757,2.308-7.507,0-.279,3.17-.989,3.322-.685l11.083,25.843c1.6,3.779,2.688,4.489,4.489,4.768C194.658,294.191,194.48,295.738,193.923,295.738ZM180.71,283.895l-4.895-11.843-4.945,11.843c-.279.634.355.736.964.736h7.938C180.355,284.63,181.014,284.529,180.71,283.895Z" transform="translate(157.664 -201.364)" fill="#ec272d"/>
      <path id="Path_29" data-name="Path 29" d="M210.331,295.657c-3.094.913-7.177.964-10.094-2.764l-6.9-8.9c-2.054-2.638-4.134-2.942-7.228-2.993v8.724c0,3.221,2.232,3.779,5.047,4.083.33.051.1,1.674-.279,1.674h-14.3c-.355,0-.634-1.623-.279-1.674,2.359-.33,3.728-1.268,3.728-4.083V269.738c0-2.992-1.547-3.855-3.728-4.464-.355-.1-.127-1.724.279-1.674a43.084,43.084,0,0,0,5.275.279c3.6,0,6.949-.279,9.181-.279,7.177,0,11.641,2.916,11.641,8.394,0,5.123-4.134,7.76-8.217,7.989v.178c1.953,0,3.4.862,5.453,3.4l6.594,8.268c1.5,1.9,2.993,2.46,3.855,2.46C210.686,294.312,210.584,295.581,210.331,295.657Zm-14.05-22.393c0-4.819-2.916-7.126-6.822-7.126-2.637,0-3.373,1.04-3.373,3.6v9.028h1.192C194.024,278.766,196.281,277.625,196.281,273.263Z" transform="translate(182.087 -201.105)" fill="#ec272d"/>
      <path id="Path_30" data-name="Path 30" d="M226.22,295.657c-3.094.913-7.177.964-10.094-2.764l-6.9-8.9c-2.054-2.638-4.134-2.942-7.228-2.993v8.724c0,3.221,2.232,3.779,5.047,4.083.33.051.1,1.674-.279,1.674h-14.3c-.355,0-.634-1.623-.279-1.674,2.359-.33,3.728-1.268,3.728-4.083V269.738c0-2.992-1.547-3.855-3.728-4.464-.355-.1-.127-1.724.279-1.674a43.083,43.083,0,0,0,5.275.279c3.6,0,6.949-.279,9.181-.279,7.177,0,11.641,2.916,11.641,8.394,0,5.123-4.134,7.76-8.217,7.989v.178c1.953,0,3.4.862,5.453,3.4l6.594,8.268c1.5,1.9,2.993,2.46,3.855,2.46C226.6,294.312,226.5,295.581,226.22,295.657ZM212.2,273.263c0-4.819-2.916-7.126-6.822-7.126-2.637,0-3.373,1.04-3.373,3.6v9.028h1.192C209.914,278.766,212.2,277.625,212.2,273.263Z" transform="translate(206.495 -201.105)" fill="#ec272d"/>
      <path id="Path_31" data-name="Path 31" d="M206.73,280.164c0-9.181,6.594-16.814,16.535-16.814,9.485,0,16.484,6.9,16.484,16.408,0,9.231-6.543,16.84-16.586,16.84A16,16,0,0,1,206.73,280.164Zm27.034,2.257c0-9-6.036-15.749-12.3-15.749-3.855,0-8.673,2.638-8.673,10.8,0,9.13,6.036,15.8,12.3,15.8C228.9,293.276,233.764,290.638,233.764,282.421Z" transform="translate(229.105 -201.488)" fill="#ec272d"/>
      <path id="Path_32" data-name="Path 32" d="M221.954,293.708c2.638-.685,4.641-1.091,4.641-4.464V269.387c0-3.17-1.826-3.8-3.779-4.083-.355-.051-.1-1.674.228-1.674h13.086c.33,0,.558,1.623.228,1.674-1.851.178-3.677.913-3.677,4.083v19.857c0,2.587.964,3.627,4.641,3.627,6.442,0,9.485-3.271,10.525-4.869.33-.456,1.648-.178,1.648.583,0,2.13-2.054,6.949-4.945,6.9-2.815-.127-5-.279-8.775-.279-4.134,0-9.434-.127-13.543.279C221.777,295.584,221.6,293.809,221.954,293.708Z" transform="translate(252.2 -201.058)" fill="#ec272d"/>
      <path id="Path_33" data-name="Path 33" d="M234.874,293.708c2.638-.685,4.641-1.091,4.641-4.464V269.387c0-3.17-1.826-3.8-3.779-4.083-.355-.051-.1-1.674.228-1.674h13.086c.33,0,.558,1.623.228,1.674-1.851.178-3.677.913-3.677,4.083v19.857c0,2.587.964,3.627,4.641,3.627,6.442,0,9.485-3.271,10.525-4.869.33-.456,1.648-.178,1.648.583,0,2.13-2.054,6.949-4.945,6.9-2.815-.127-5-.279-8.775-.279-4.134,0-9.434-.127-13.543.279C234.7,295.584,234.519,293.809,234.874,293.708Z" transform="translate(272.046 -201.058)" fill="#ec272d"/>
      <path id="Path_34" data-name="Path 34" d="M247.82,280.164c0-9.181,6.594-16.814,16.535-16.814,9.485,0,16.484,6.9,16.484,16.408,0,9.231-6.543,16.84-16.586,16.84A15.982,15.982,0,0,1,247.82,280.164Zm27.009,2.257c0-9-6.036-15.749-12.3-15.749-3.855,0-8.673,2.638-8.673,10.8,0,9.13,6.036,15.8,12.3,15.8C269.985,293.276,274.829,290.638,274.829,282.421Z" transform="translate(292.221 -201.488)" fill="#ec272d"/>
    </g>
    <g id="Group_24" data-name="Group 24" transform="translate(128.501 83.53)">
      <path id="Path_35" data-name="Path 35" d="M320.21,281.039l7.71-39.867-20.948-49.25-23.433-24.473s-1.522-1.192-1.369-1.116c37.559,16.307,65.659,60.612,70.35,114.275,0,.1.025.3.025.3Zm-11.97.076L267,280.963V168.539s.355.279.507.431c24.219,20.821,40.729,62.438,40.729,110.37v1.775m44.153-.178-32.107.1s-.076-3.8-.152-5.934a176.138,176.138,0,0,0-1.116-19.731c-3.094-29.849-12.148-54.018-25.361-74.687a87.2,87.2,0,0,0-11.387-14.2l-.152-.2s3.145,1.877,4.895,3.018c2.561,1.648,5.123,3.322,7.532,5.021A153.378,153.378,0,0,1,314.4,191.44c.38.406,1.75,1.8,3.246,3.449s3.119,3.576,4.311,5a131.235,131.235,0,0,1,13.9,20.136,119.051,119.051,0,0,1,6.036,12.782c7.126,17.55,9.637,35.074,10.449,46.664a14.519,14.519,0,0,0,.051,1.471m-.1-1.471h0m16.053-4.108-15.876-64.264-33.3-35.606s-9.865-7-15.5-10.829a45.563,45.563,0,0,0-3.931-2.409s.127.051.178.076A133.116,133.116,0,0,1,383.028,280.81v.127Zm-3.8,5.6s-1.167-13.01-3.5-24.625a146.25,146.25,0,0,0-5.5-19.655,147.885,147.885,0,0,0-7.659-18.716c-6.213-12.224-12.554-23.687-23.991-35.758a130.249,130.249,0,0,0-11.945-11.387c-3.069-2.511-5.732-4.489-7.684-5.858,1.141.685,2.612,1.547,4.438,2.612,3.4,1.953,7.431,4.337,11.742,7.228,1.927,1.293,3.728,2.688,5.732,4.21.431.33,6.543,5.021,12.528,10.7a145.939,145.939,0,0,1,29.165,39.461,140.485,140.485,0,0,1,11.564,32.309c1.7,7.481,2.967,19.477,2.967,19.477Zm-12.148-.025-32.107.1s-.076-3.8-.152-5.934a176.138,176.138,0,0,0-1.116-19.731c-3.094-29.849-12.148-54.018-25.361-74.687a87.2,87.2,0,0,0-11.387-14.2l-.152-.2s3.145,1.877,4.895,3.018c2.561,1.648,5.123,3.322,7.532,5.021A153.378,153.378,0,0,1,314.4,191.44c.38.406,1.75,1.8,3.246,3.449s3.119,3.576,4.311,5a131.235,131.235,0,0,1,13.9,20.136,119.051,119.051,0,0,1,6.036,12.782c7.126,17.55,9.637,35.074,10.449,46.664a14.519,14.519,0,0,0,.051,1.471m-.1-1.471h0M238.041,167.474l-23.433,24.473L193.66,241.222l7.71,39.867-32.335-.127s.025-.2.025-.3c4.692-53.663,32.791-97.993,70.35-114.326a13.561,13.561,0,0,1-1.369,1.141m-24.7,113.692v-1.75c0-47.957,16.51-89.574,40.729-110.42.178-.152.507-.431.507-.431V281.013Zm-44.051-1.623h0M239.335,166.51a87.2,87.2,0,0,0-11.387,14.2c-13.213,20.669-22.267,44.838-25.361,74.712-1.293,12.4-1.217,22.216-1.116,19.731-.076,2.13-.152,5.934-.152,5.934l-32.107-.1s.076-1.319.1-1.471v-.025c.812-11.59,3.322-29.114,10.449-46.689a119.04,119.04,0,0,1,6.036-12.782,129.471,129.471,0,0,1,13.9-20.136c1.192-1.42,2.815-3.348,4.311-5s2.84-3.043,3.246-3.449a157.438,157.438,0,0,1,19.857-17.118c2.409-1.7,4.971-3.373,7.532-5.021,1.75-1.141,4.895-3.018,4.895-3.018Zm-21.43-1.826c-5.63,3.829-15.5,10.829-15.5,10.829l-33.3,35.632L152.17,281.064l-13.644-.051v-.127a133.083,133.083,0,0,1,83.107-118.51c.051-.025.178-.076.178-.076a43.131,43.131,0,0,0-3.906,2.384m-20.238,17.575c-11.438,12.072-17.778,23.535-23.991,35.759a147.875,147.875,0,0,0-7.659,18.716,146.235,146.235,0,0,0-5.5,19.654c-2.333,11.615-3.5,24.651-3.5,24.651H139.186s1.268-12,2.967-19.477a141.433,141.433,0,0,1,11.564-32.335,145.386,145.386,0,0,1,16.231-25.285,149.933,149.933,0,0,1,12.934-14.177,159.873,159.873,0,0,1,12.528-10.7c2-1.5,3.8-2.916,5.732-4.21,4.311-2.891,8.344-5.3,11.742-7.228,1.826-1.04,3.272-1.9,4.438-2.612-1.953,1.369-4.641,3.348-7.684,5.858a130.576,130.576,0,0,0-11.97,11.387m-28.379,97.283h0M239.335,166.51a87.2,87.2,0,0,0-11.387,14.2c-13.213,20.669-22.267,44.838-25.361,74.712-1.293,12.4-1.217,22.216-1.116,19.731-.076,2.13-.152,5.934-.152,5.934l-32.107-.1s.076-1.319.1-1.471v-.025c.812-11.59,3.322-29.114,10.449-46.689a119.04,119.04,0,0,1,6.036-12.782,129.471,129.471,0,0,1,13.9-20.136c1.192-1.42,2.815-3.348,4.311-5s2.84-3.043,3.246-3.449a157.438,157.438,0,0,1,19.857-17.118c2.409-1.7,4.971-3.373,7.532-5.021,1.75-1.141,4.895-3.018,4.895-3.018Zm45.4-44.356H236.6a.817.817,0,0,1-.812-.812v-1.851a.817.817,0,0,1,.812-.812H284.73a.817.817,0,0,1,.812.812v1.851a.8.8,0,0,1-.812.812m0,36.342H236.6a.817.817,0,0,1-.812-.812v-1.851a.817.817,0,0,1,.812-.812H284.73a.817.817,0,0,1,.812.812v1.851a.8.8,0,0,1-.812.812M389.368,293.9H132.212a.817.817,0,0,1-.812-.812v-2.156a.817.817,0,0,1,.812-.812H389.368a.817.817,0,0,1,.812.812v2.156a.8.8,0,0,1-.812.812M256.2,93.37h-.761a.173.173,0,0,1-.178-.178V91.316a.173.173,0,0,1,.178-.178h.761a.173.173,0,0,1,.178.178v1.877a.214.214,0,0,1-.178.178m9.738,0h-.761a.173.173,0,0,1-.178-.178V91.316a.173.173,0,0,1,.178-.178h.761a.173.173,0,0,1,.178.178v1.877a.173.173,0,0,1-.178.178m-10.651.406v-.583h10.829v.583Zm5.858-7.786h-.888a.227.227,0,0,1-.228-.228v-2a.227.227,0,0,1,.228-.228h.888a.227.227,0,0,1,.228.228v2c-.025.127-.1.228-.228.228m-.761-.025h.634V98.543h-.634ZM242.1,116.321v-.076c.051-10.7,8.369-19.35,18.64-19.35,10.246,0,18.539,8.623,18.615,19.274v.152Zm41.972,5.655h-46.79a1.445,1.445,0,0,1-1.446-1.446v-.38a1.461,1.461,0,0,1,1.446-1.446h46.79a1.445,1.445,0,0,1,1.446,1.446v.38a1.429,1.429,0,0,1-1.446,1.446m0,36.494h-46.79a1.461,1.461,0,0,1-1.446-1.446v-.38a1.461,1.461,0,0,1,1.446-1.446h46.79a1.461,1.461,0,0,1,1.446,1.446v.38a1.445,1.445,0,0,1-1.446,1.446m-21-6.366h-4.692a1.461,1.461,0,0,1-1.446-1.446V125.629a1.445,1.445,0,0,1,1.446-1.446h4.692a1.445,1.445,0,0,1,1.446,1.446V150.66a1.461,1.461,0,0,1-1.446,1.446m12.173,0h-4.692a1.461,1.461,0,0,1-1.446-1.446V125.629a1.461,1.461,0,0,1,1.446-1.446h4.692a1.445,1.445,0,0,1,1.446,1.446V150.66a1.461,1.461,0,0,1-1.446,1.446m-24.422,0h-4.692a1.461,1.461,0,0,1-1.446-1.446V125.629a1.461,1.461,0,0,1,1.446-1.446h4.692a1.445,1.445,0,0,1,1.446,1.446V150.66a1.462,1.462,0,0,1-1.446,1.446m56.453,139.61v-5.681a1.218,1.218,0,0,1,1.217-1.217h11.362a1.218,1.218,0,0,1,1.217,1.217v5.3Zm12.351,20.263H308.722a1.461,1.461,0,0,1-1.446-1.446v-10.88a1.445,1.445,0,0,1,1.446-1.446h10.905a1.445,1.445,0,0,1,1.446,1.446v10.88a1.461,1.461,0,0,1-1.446,1.446m31.7-20.263v-5.681a1.218,1.218,0,0,1,1.217-1.217h11.362a1.218,1.218,0,0,1,1.217,1.217v5.3Zm12.325,20.263H352.748a1.461,1.461,0,0,1-1.446-1.446v-10.88a1.461,1.461,0,0,1,1.446-1.446h10.905a1.445,1.445,0,0,1,1.446,1.446v10.88a1.445,1.445,0,0,1-1.446,1.446M200.432,291.31v-5.3a1.218,1.218,0,0,1,1.217-1.217h11.362a1.218,1.218,0,0,1,1.217,1.217v5.706Zm12.376,20.669H201.9a1.445,1.445,0,0,1-1.446-1.446V299.628a1.445,1.445,0,0,1,1.446-1.446h10.905a1.445,1.445,0,0,1,1.446,1.446v10.905a1.479,1.479,0,0,1-1.446,1.446M156.38,291.31v-5.3a1.218,1.218,0,0,1,1.217-1.217h11.362a1.218,1.218,0,0,1,1.217,1.217v5.706Zm12.351,20.669H157.826a1.445,1.445,0,0,1-1.446-1.446V299.628a1.445,1.445,0,0,1,1.446-1.446h10.905a1.445,1.445,0,0,1,1.446,1.446v10.905a1.445,1.445,0,0,1-1.446,1.446m85.11-20.669v-5.3a1.218,1.218,0,0,1,1.217-1.217H266.42a1.218,1.218,0,0,1,1.217,1.217v5.706Zm12.351,20.669H255.287a1.445,1.445,0,0,1-1.446-1.446V299.628a1.445,1.445,0,0,1,1.446-1.446h10.905a1.445,1.445,0,0,1,1.446,1.446v10.905a1.429,1.429,0,0,1-1.446,1.446m122.543-18.107H132.871a1.461,1.461,0,0,1-1.446-1.446v-.862a1.445,1.445,0,0,1,1.446-1.446H388.734a1.461,1.461,0,0,1,1.446,1.446v.862a1.445,1.445,0,0,1-1.446,1.446m0,30.281H132.846a1.461,1.461,0,0,1-1.446-1.446v-6.061a1.461,1.461,0,0,1,1.446-1.446H388.734a1.445,1.445,0,0,1,1.446,1.446v6.061a1.462,1.462,0,0,1-1.446,1.446" transform="translate(19.767 -83.53)" fill="#203c73"/>
      <rect id="Rectangle_2" data-name="Rectangle 2" width="259.541" height="11.159" transform="translate(150.787 356.469)" fill="#ec272d"/>
      <g id="Group_22" data-name="Group 22" transform="translate(150.863 264.03)">
        <path id="Path_36" data-name="Path 36" d="M131.28,196.618v-.051a8.654,8.654,0,0,1,8.648-8.927,9.132,9.132,0,0,1,6.442,2.282l-1.268,1.471a7.34,7.34,0,0,0-5.25-1.978c-3.829,0-6.568,3.221-6.568,7.076v.051c0,4.108,2.638,7.177,6.847,7.177a8.167,8.167,0,0,0,5-1.725v-4.286h-5.25v-1.75H147v6.873a10.522,10.522,0,0,1-6.923,2.637C134.653,205.494,131.28,201.563,131.28,196.618Z" transform="translate(-131.28 -187.64)" fill="#203c73"/>
        <path id="Path_37" data-name="Path 37" d="M140.02,196.618v-.051a8.8,8.8,0,1,1,17.6-.051v.051a8.8,8.8,0,1,1-17.6.051Zm15.6,0v-.051a6.863,6.863,0,0,0-6.822-7.126,6.794,6.794,0,0,0-6.771,7.076v.051a6.863,6.863,0,0,0,6.822,7.126A6.779,6.779,0,0,0,155.617,196.618Z" transform="translate(-117.855 -187.64)" fill="#203c73"/>
        <path id="Path_38" data-name="Path 38" d="M149.7,187.76h7.355a6.329,6.329,0,0,1,4.514,1.522,3.847,3.847,0,0,1,1.116,2.764v.051a4.171,4.171,0,0,1-2.739,4.007c2.054.609,3.7,1.8,3.7,4.159v.051c0,2.967-2.485,4.717-6.264,4.717H149.7Zm7.025,7.684c2.333,0,3.982-1.065,3.982-3.094V192.3c0-1.7-1.344-2.815-3.829-2.815h-5.25v5.934h5.1Zm.685,7.836c2.612,0,4.235-1.167,4.235-3.094v-.051c0-1.877-1.572-2.967-4.59-2.967H151.6v6.087h5.808Z" transform="translate(-102.986 -187.456)" fill="#203c73"/>
        <path id="Path_39" data-name="Path 39" d="M157.9,187.76h1.953v17.271H157.9Z" transform="translate(-90.39 -187.456)" fill="#203c73"/>
        <path id="Path_40" data-name="Path 40" d="M161.77,187.76h12.477v1.775H163.723v5.909h9.434v1.775h-9.434v6.036h10.651v1.775h-12.6Z" transform="translate(-84.445 -187.456)" fill="#203c73"/>
        <path id="Path_41" data-name="Path 41" d="M169.39,187.76h7.431a6.807,6.807,0,0,1,4.92,1.725,4.79,4.79,0,0,1,1.344,3.4v.051c0,2.866-1.978,4.54-4.692,5.021l5.3,7.05h-2.384l-5-6.721h-4.945v6.721h-1.953V187.76Zm7.253,8.8c2.587,0,4.438-1.344,4.438-3.55v-.051c0-2.13-1.623-3.4-4.413-3.4h-5.326v7Z" transform="translate(-72.741 -187.456)" fill="#203c73"/>
        <path id="Path_42" data-name="Path 42" d="M177.53,187.76h1.826l10.88,13.847V187.76h1.9v17.271h-1.547l-11.159-14.151v14.151h-1.9Z" transform="translate(-60.237 -187.456)" fill="#203c73"/>
        <path id="Path_43" data-name="Path 43" d="M186.01,196.618v-.051a8.8,8.8,0,1,1,17.6-.051v.051a8.8,8.8,0,1,1-17.6.051Zm15.6,0v-.051a6.863,6.863,0,0,0-6.822-7.126,6.794,6.794,0,0,0-6.771,7.076v.051a6.863,6.863,0,0,0,6.822,7.126A6.779,6.779,0,0,0,201.607,196.618Z" transform="translate(-47.211 -187.64)" fill="#203c73"/>
        <path id="Path_44" data-name="Path 44" d="M199.72,187.76h5.985c5.427,0,9.181,3.728,9.181,8.6v.051c0,4.869-3.753,8.648-9.181,8.648H199.72Zm5.985,15.47c4.362,0,7.152-2.967,7.152-6.8v-.051c0-3.829-2.79-6.847-7.152-6.847h-4.058V203.2h4.058Z" transform="translate(-26.152 -187.456)" fill="#203c73"/>
        <path id="Path_45" data-name="Path 45" d="M208.43,187.76h12.477v1.775H210.383v5.909h9.434v1.775h-9.434v6.036h10.651v1.775h-12.6Z" transform="translate(-12.773 -187.456)" fill="#203c73"/>
        <path id="Path_46" data-name="Path 46" d="M220.08,187.76h1.953v15.47h9.713v1.8H220.08Z" transform="translate(5.122 -187.456)" fill="#203c73"/>
        <path id="Path_47" data-name="Path 47" d="M234.523,187.71h1.826l7.862,17.4h-2.1l-2.029-4.565h-9.409l-2.054,4.565h-2Zm4.819,11.083-3.931-8.8-3.956,8.8Z" transform="translate(15.153 -187.532)" fill="#203c73"/>
      </g>
      <g id="Group_23" data-name="Group 23" transform="translate(0 287.304)">
        <path id="Path_48" data-name="Path 48" d="M97.958,225.5a6.571,6.571,0,0,1-7.481-2.1L85,216.347c-1.522-2-3.348-2.282-5.833-2.308v6.923c0,2.485,1.7,2.916,3.982,3.2.254.025.076,1.217-.2,1.217H72.14c-.279,0-.507-1.167-.2-1.217,1.826-.254,2.967-.964,2.967-3.2V205.087c0-2.359-1.243-3.018-2.967-3.5-.279-.076-.1-1.243.2-1.217a34.171,34.171,0,0,0,4.108.2c2.638,0,5.1-.2,6.8-.2,5.376,0,8.978,2.206,8.978,6.594,0,4.134-3.348,6.163-6.34,6.34v.178c1.42,0,2.46.609,4.032,2.561l5.3,6.67a3.906,3.906,0,0,0,2.967,1.775C98.262,224.463,98.186,225.427,97.958,225.5ZM87.534,207.9c0-3.8-2.435-5.706-5.6-5.706-2.1,0-2.79.862-2.79,2.84v7.329h1.04C85.506,212.391,87.534,211.453,87.534,207.9Z" transform="translate(-71.793 -191.36)" fill="#203c73"/>
        <path id="Path_49" data-name="Path 49" d="M84.462,224.164c2.054-.533,3.677-.862,3.677-3.5V204.839c0-2.282-1.471-2.891-2.993-3.272-.279-.076-.1-1.243.178-1.217,2.612.279,7.1.2,9.257.2,3.246,0,5.6-.152,8.521-.2.862,0,.862.583.685,1.395l-.862,3.373c-.1.507-.989.507-1.141,0-.533-1.75-1.6-2.739-6.061-2.739-2.485,0-3.322.634-3.322,2.485v5.808c0,.938.456,1.116,1.167,1.116h.786c2.891,0,5.376-.279,6.847-1.6.355-.33,1.141-.254.812.456l-2.029,4.489c-.279.634-.812.583-1.217.025-.812-1.141-2.637-1.6-4.692-1.6h-.507c-.71,0-1.167.177-1.167,1.09v5.985c0,2.029.862,2.79,3.8,2.79,5.376,0,7.507-2.46,8.369-3.8.254-.406,1.217-.2,1.217.38,0,1.826-1.522,5.4-3.779,5.4-2-.1-3.956-.2-6.949-.2-3.272,0-7.152-.1-10.4.2C84.31,225.483,84.183,224.24,84.462,224.164Z" transform="translate(-52.566 -191.391)" fill="#203c73"/>
        <path id="Path_50" data-name="Path 50" d="M102.845,215.83v5.123c0,2.485,1.7,2.916,3.982,3.2.254.025.076,1.217-.2,1.217H95.82c-.279,0-.507-1.167-.2-1.217,1.826-.254,2.967-.964,2.967-3.2V205.077c0-2.359-1.243-3.018-2.967-3.5-.279-.076-.1-1.243.2-1.217a34.172,34.172,0,0,0,4.108.2c2.637,0,4.844-.2,6.67-.2,5.529,0,10.094,2.029,10.094,7.634C116.667,214.334,110.707,217,102.845,215.83Zm0-10.778v9c6.061.862,9.231-.609,9.231-5.275,0-4.235-2.714-6.594-6.366-6.594C103.454,202.212,102.845,203,102.845,205.052Z" transform="translate(-35.419 -191.376)" fill="#203c73"/>
        <path id="Path_51" data-name="Path 51" d="M109.622,221.475V210.291c0-2.257-1.141-2.993-2.891-3.2-.279-.025-.076-1.217.2-1.217h9.713c.279,0,.507,1.167.2,1.217-1.42.178-2.84.71-2.84,3.2v11.362c0,5,2.891,7.3,6.67,7.3,3.88,0,6.974-2.308,6.974-7.3V210.291c0-2.308-1.319-2.967-3.069-3.2-.254-.025-.076-1.217.2-1.217H132.8c.254,0,.457,1.167.178,1.217-1.42.178-2.84.71-2.84,3.2v11.159c0,6.568-4.235,9.941-9.891,9.941C115.252,231.391,109.622,228.7,109.622,221.475ZM120.1,197c.634-.913,3.627,1.826,2.79,2.46l-4.666,3.525c-.456.355-1.7-.786-1.344-1.293Z" transform="translate(-18.331 -196.817)" fill="#203c73"/>
        <path id="Path_52" data-name="Path 52" d="M141.749,218.179c0,4.413-4.032,7.253-9.967,7.253-1.7,0-3.7-.2-6.34-.2a52.262,52.262,0,0,0-5.6.2c-.33.025-.507-1.217-.2-1.268,2.054-.533,3.677-.862,3.677-3.5V204.839c0-2.282-1.471-2.891-2.993-3.272-.279-.076-.1-1.243.178-1.217a38.262,38.262,0,0,0,4.311.2c2.84,0,4.945-.2,6.518-.2,4.59,0,8.369,1.927,8.394,5.833a5.378,5.378,0,0,1-4.489,5.376v.2A6.392,6.392,0,0,1,141.749,218.179Zm-14.177-13.314v6.34h3.677c2.561,0,4.058-1.293,4.058-4.032,0-3.373-2.282-4.945-5.2-4.945C128.207,202.227,127.573,202.861,127.573,204.864Zm9.586,14.1a5.582,5.582,0,0,0-5.909-5.985h-3.677v7.684c0,1.953.989,2.916,4.108,2.916C134.8,223.606,137.159,222.668,137.159,218.965Z" transform="translate(1.455 -191.391)" fill="#203c73"/>
        <path id="Path_53" data-name="Path 53" d="M131.041,224.118c2.054-.533,3.677-.862,3.677-3.5V204.793c0-2.485-1.471-2.993-2.993-3.2-.279-.025-.076-1.217.178-1.217h9.84c.254,0,.431,1.167.178,1.217-1.5.178-2.916.71-2.916,3.2v15.825c0,2.029.862,2.79,3.8,2.79,5.376,0,7.507-2.46,8.369-3.8.254-.406,1.217-.2,1.217.38,0,1.826-1.522,5.4-3.779,5.4-2-.1-3.956-.2-6.949-.2-3.272,0-7.152-.1-10.4.2C130.889,225.436,130.762,224.194,131.041,224.118Z" transform="translate(18.985 -191.345)" fill="#203c73"/>
        <path id="Path_54" data-name="Path 54" d="M141.921,224.1c1.826-.254,2.967-.964,2.967-3.2V204.8c0-2.257-1.141-2.967-2.967-3.2-.279-.025-.076-1.217.2-1.217h9.764c.279,0,.507,1.167.2,1.217-1.522.2-2.967.71-2.967,3.2v16.1c0,2.485,1.42,2.993,2.967,3.2.279.025.076,1.217-.2,1.217h-9.764C141.845,225.319,141.642,224.153,141.921,224.1Z" transform="translate(35.723 -191.329)" fill="#203c73"/>
        <path id="Path_55" data-name="Path 55" d="M148.81,213.662c0-6.163,3.779-13.492,13.745-13.492,4.134,0,7.684,1.293,7.279,2.536l-.456,1.395c-1.293,3.8-2.663-1.065-9-1.065-5.1,0-7.583,3.322-7.583,8.445,0,8.014,6.087,11.362,10.981,11.362a14.881,14.881,0,0,0,5.731-1.674c.279-.178,1.04.634.812.964-1.522,2.257-6.315,4.134-7.405,4.134C156.9,226.241,148.81,222.741,148.81,213.662Z" transform="translate(46.51 -191.667)" fill="#203c73"/>
        <path id="Path_56" data-name="Path 56" d="M186.161,225.588h-9.409c-.456,0-.507-1.141-.1-1.217,1.319-.254,2.739-.71,1.42-3.779l-.38-.888c-.355-.862-.964-.938-2.029-.938h-7.279c-1.065,0-1.674.076-2.029.938l-.355.888c-1.243,3.069.1,3.525,1.826,3.779.456.076.355,1.217-.1,1.217h-7.684c-.431,0-.533-1.141-.1-1.217,1.471-.254,2.308-.761,3.627-3.779l6.01-13.822c1.395-3.145,1.826-4.59,1.826-5.96,0-.2,2.485-.786,2.612-.533l8.7,20.263c1.293,3.018,2.13,3.6,3.55,3.8C186.719,224.447,186.592,225.588,186.161,225.588Zm-9.941-9.358-4.159-9.967-4.21,9.967c-.2.507.33.583.812.583h6.721C175.89,216.788,176.422,216.712,176.219,216.23Z" transform="translate(63.178 -191.598)" fill="#203c73"/>
        <path id="Path_57" data-name="Path 57" d="M176.991,224.164c2.054-.533,3.677-.862,3.677-3.5V204.839c0-2.282-1.471-2.891-2.993-3.272-.279-.076-.1-1.243.178-1.217a37.309,37.309,0,0,0,4.463.2c2.79,0,5.275-.2,7.1-.2,8.623,0,13.289,5.123,13.289,12,0,6.847-4.666,13.061-13.314,13.061-1.7,0-3.906-.2-6.543-.2a52.8,52.8,0,0,0-5.6.2C176.838,225.483,176.712,224.24,176.991,224.164Zm21.4-9.764c0-6.8-3.7-12.148-10.119-12.148-2.536,0-3.348.786-3.348,2.612V220.69c0,1.927,1.319,2.891,4.768,2.891C195.5,223.555,198.395,220.436,198.395,214.4Z" transform="translate(89.568 -191.391)" fill="#203c73"/>
        <path id="Path_58" data-name="Path 58" d="M190.08,213.348c0-7.2,5.123-13.188,12.934-13.188a12.459,12.459,0,0,1,12.858,12.858c0,7.228-5.1,13.213-12.934,13.213A12.494,12.494,0,0,1,190.08,213.348Zm21.557,1.674c0-7.2-4.869-12.427-10.017-12.427-3.145,0-7.279,2.054-7.279,8.775,0,7.279,4.869,12.477,9.967,12.477C207.477,223.821,211.637,221.767,211.637,215.021Z" transform="translate(109.903 -191.683)" fill="#203c73"/>
        <path id="Path_59" data-name="Path 59" d="M234.655,225.54h-9.307c-.254,0-.431-1.167-.2-1.217,1.5-.254,2.612-.964,2.485-3.2l-.685-11.97-5.782,11.767a19.6,19.6,0,0,0-1.42,3.677c-.076.431-.812.634-1.395.634a1.143,1.143,0,0,1-1.116-.634l-8.217-15.6-.533,12.148c-.1,2.485,1.344,3.069,2.485,3.2.279.025.076,1.217-.178,1.217h-7.38c-.279,0-.507-1.167-.2-1.217,1.522-.177,2.815-.71,2.967-3.2l1.141-20.441c.025-.609,1.395-.634,1.75,0l10.322,19.3,9.586-19.3c.33-.634,1.75-.609,1.775,0l1.141,20.441c.152,2.485,1.42,3.018,2.916,3.2C235.137,224.374,234.908,225.54,234.655,225.54Z" transform="translate(129.846 -191.55)" fill="#203c73"/>
        <path id="Path_60" data-name="Path 60" d="M218.491,224.1c1.826-.254,2.967-.964,2.967-3.2V204.8c0-2.257-1.141-2.967-2.967-3.2-.279-.025-.076-1.217.2-1.217h9.764c.279,0,.507,1.167.2,1.217-1.522.2-2.967.71-2.967,3.2v16.1c0,2.485,1.42,2.993,2.967,3.2.279.025.076,1.217-.2,1.217h-9.764C218.415,225.319,218.212,224.153,218.491,224.1Z" transform="translate(153.339 -191.329)" fill="#203c73"/>
        <path id="Path_61" data-name="Path 61" d="M247.6,224.99l-16.966-17.727v13.543c0,2.435,1.42,2.815,3.449,3.322.279.076.152,1.217-.2,1.217h-8.445c-.279,0-.507-1.116-.178-1.217,1.5-.507,2.916-.786,2.916-3.322V206.984c0-2.536-.38-3.728-1.319-5-.33-.431-.634-.71-.634-.812a.736.736,0,0,1,.71-.786h2.637a.946.946,0,0,1,.862.33l16.586,17.55v-13.39c0-2.536-1.6-2.815-3.449-3.272-.279-.076-.152-1.217.2-1.217h8.445c.279,0,.456,1.141.178,1.217-1.572.456-2.916.761-2.916,3.272v13.847a30.508,30.508,0,0,0,.431,6.264c.152.533-.431.685-.989.685A1.671,1.671,0,0,1,247.6,224.99Z" transform="translate(163.69 -191.329)" fill="#203c73"/>
        <path id="Path_62" data-name="Path 62" d="M238.778,224.1c1.826-.254,2.967-.964,2.967-3.2V204.8c0-2.257-1.141-2.967-2.967-3.2-.279-.025-.076-1.217.2-1.217h9.764c.279,0,.507,1.167.2,1.217-1.522.2-2.967.71-2.967,3.2v16.1c0,2.485,1.42,2.993,2.967,3.2.279.025.076,1.217-.2,1.217h-9.764C238.7,225.319,238.473,224.153,238.778,224.1Z" transform="translate(184.484 -191.329)" fill="#203c73"/>
        <path id="Path_63" data-name="Path 63" d="M245.67,213.662c0-6.163,3.779-13.492,13.745-13.492,4.134,0,7.684,1.293,7.279,2.536l-.456,1.395c-1.293,3.8-2.663-1.065-9-1.065-5.1,0-7.583,3.322-7.583,8.445,0,8.014,6.087,11.362,10.981,11.362a14.881,14.881,0,0,0,5.732-1.674c.279-.178,1.04.634.812.964-1.522,2.257-6.315,4.134-7.405,4.134C253.76,226.241,245.67,222.741,245.67,213.662Z" transform="translate(195.293 -191.667)" fill="#203c73"/>
        <path id="Path_64" data-name="Path 64" d="M283,225.588h-9.409c-.456,0-.507-1.141-.1-1.217,1.319-.254,2.739-.71,1.42-3.779l-.38-.888c-.355-.862-.964-.938-2.029-.938h-7.279c-1.065,0-1.674.076-2.029.938l-.355.888c-1.243,3.069.1,3.525,1.826,3.779.456.076.355,1.217-.1,1.217h-7.684c-.431,0-.533-1.141-.1-1.217,1.471-.254,2.308-.761,3.627-3.779l6.01-13.822c1.395-3.145,1.826-4.59,1.826-5.96,0-.2,2.485-.786,2.612-.533l8.7,20.263c1.293,3.018,2.13,3.6,3.55,3.8C283.584,224.447,283.432,225.588,283,225.588Zm-9.916-9.358-4.159-9.967-4.21,9.967c-.2.507.33.583.812.583h6.721C272.755,216.788,273.288,216.712,273.085,216.23Z" transform="translate(211.93 -191.598)" fill="#203c73"/>
        <path id="Path_65" data-name="Path 65" d="M292.021,224.99l-16.966-17.727v13.543c0,2.435,1.42,2.815,3.449,3.322.279.076.152,1.217-.2,1.217h-8.445c-.279,0-.507-1.116-.178-1.217,1.5-.507,2.917-.786,2.917-3.322V206.984c0-2.536-.38-3.728-1.319-5-.33-.431-.634-.71-.634-.812a.736.736,0,0,1,.71-.786h2.638a.946.946,0,0,1,.862.33l16.586,17.55v-13.39c0-2.536-1.6-2.815-3.449-3.272-.279-.076-.152-1.217.2-1.217h8.445c.279,0,.456,1.141.178,1.217-1.572.456-2.916.761-2.916,3.272v13.847a30.508,30.508,0,0,0,.431,6.264c.152.533-.431.685-.989.685A1.635,1.635,0,0,1,292.021,224.99Z" transform="translate(231.922 -191.329)" fill="#203c73"/>
        <path id="Path_66" data-name="Path 66" d="M308.941,225.588h-9.409c-.456,0-.507-1.141-.1-1.217,1.319-.254,2.739-.71,1.42-3.779l-.38-.888c-.355-.862-.964-.938-2.029-.938h-7.279c-1.065,0-1.674.076-2.029.938l-.355.888c-1.243,3.069.1,3.525,1.826,3.779.456.076.355,1.217-.1,1.217h-7.684c-.431,0-.533-1.141-.1-1.217,1.471-.254,2.308-.761,3.627-3.779l6.01-13.822c1.395-3.145,1.826-4.59,1.826-5.96,0-.2,2.485-.786,2.612-.533l8.7,20.263c1.293,3.018,2.13,3.6,3.55,3.8C309.524,224.447,309.372,225.588,308.941,225.588Zm-9.916-9.358-4.159-9.967-4.21,9.967c-.2.507.33.583.812.583h6.721C298.695,216.788,299.228,216.712,299.025,216.23Z" transform="translate(251.775 -191.598)" fill="#203c73"/>
      </g>
    </g>
  </g>
</svg>
